<svg width="31" height="32" viewBox="0 0 31 32" fill="none" xmlns="http://www.w3.org/2000/svg">
<path fillRule="evenodd" clip-rule="evenodd" d="M26.0154 6.78085L28.0055 4.79081C28.5102 4.2863 28.5102 3.4681 28.0056 2.96346C27.5009 2.45881 26.6828 2.45881 26.1781 2.96346L24.1856 4.95622C20.528 2.04974 15.4272 1.79007 11.4933 4.3101L4.38606 8.70369C2.6976 9.74718 1.57899 11.5055 1.34933 13.477C1.11966 15.4486 1.80415 17.4169 3.20755 18.8206L12.2002 27.8132C13.6065 29.2199 15.5799 29.9046 17.5553 29.6713C19.5306 29.438 21.2902 28.3123 22.33 26.6166L26.982 19.0234C29.1689 15.1234 28.7872 10.2894 26.0154 6.78084L26.0154 6.78085ZM29.9348 20.7059C29.2379 20.553 28.5489 20.9938 28.3957 21.6906C27.9048 24.479 26.3726 26.9766 24.1094 28.6777C23.5327 29.0988 23.4066 29.9076 23.8277 30.4843C24.2487 31.0609 25.0576 31.187 25.6342 30.766C28.3998 28.6873 30.2856 25.6474 30.9194 22.2463C31.0732 21.549 30.6322 20.8591 29.9348 20.7059ZM9.42316 2.55913C10.1226 2.41639 10.5738 1.7337 10.4311 1.0343C10.2884 0.33489 9.60567 -0.11638 8.90627 0.02636C5.44096 0.63345 2.33788 2.53994 0.23023 5.35682C-0.16743 5.9306 -0.03747 6.71648 0.52373 7.1317C1.08493 7.54692 1.87445 7.44136 2.30685 6.89328C4.03089 4.58449 6.5807 3.03154 9.42317 2.55914L9.42316 2.55913ZM2.94004 22.2165L10.0473 29.3238C8.01554 30.1513 5.68574 29.6806 4.13448 28.1294C2.58322 26.5781 2.11258 24.2483 2.94004 22.2165Z" fill="#F8FAFC"/>
</svg>
