<svg width="32" height="24" viewBox="0 0 32 24" fill="none" xmlns="http://www.w3.org/2000/svg">
<path opacity="0.4" fill-rule="evenodd" clip-rule="evenodd" d="M21.9503 11.9031L28.8001 9.80651V19.3414C28.798 20.126 28.3001 20.8094 27.5901 21.002L16.7705 23.8999C16.2614 24.0338 15.7296 24.0338 15.2205 23.8999L4.41288 21.002C3.70039 20.8131 3.20015 20.1277 3.20092 19.3414V9.80651L10.0507 11.9063C10.2665 11.9749 10.4906 12.0092 10.7157 12.0081C11.565 12.0055 12.3516 11.5283 12.7906 10.7493L16.0005 5.03907L19.2154 10.7493C19.6535 11.5259 20.4383 12.0012 21.2853 12.0027C21.5103 12.0046 21.7344 11.971 21.9503 11.9031Z" fill="#0E172C"/>
<path fill-rule="evenodd" clip-rule="evenodd" d="M2.66281 0.484002L0.0878494 5.99315C-0.0212777 6.22566 -0.0279124 6.49822 0.0697516 6.73652C0.167423 6.97482 0.35921 7.15401 0.592838 7.22526L10.4877 10.252C10.843 10.3589 11.2212 10.199 11.4127 9.86091L16.0006 1.71611L3.49279 0.0093704C3.15034 -0.036092 2.81815 0.153872 2.66281 0.484002ZM31.9173 5.99315L29.3424 0.484002C29.1871 0.150878 28.852 -0.0404349 28.5074 0.00722947L16.0006 1.71611L20.5855 9.86412C20.7769 10.2022 21.1552 10.3621 21.5105 10.2552L31.4053 7.22847C31.6392 7.15632 31.8313 6.97703 31.9301 6.73869C32.0289 6.50036 32.0242 6.22742 31.9173 5.99315H31.9173Z" fill="#0E172C"/>
</svg>
