<svg width="15" height="10" viewBox="0 0 15 10" fill="none" xmlns="http://www.w3.org/2000/svg">
<path d="M14.5585 0H0V9.7058H14.5585V0Z" fill="#F0F0F0"/>
<path d="M8.18918 0H6.36936V3.94292H0V5.76274H6.36936V9.70565H8.18918V5.76274H14.5585V3.94292H8.18918V0Z" fill="#D80027"/>
<path d="M11.1973 6.54102L14.5587 8.40849V6.54102H11.1973Z" fill="#0052B4"/>
<path d="M8.86133 6.54102L14.5582 9.70591V8.81095L10.4723 6.54102H8.86133Z" fill="#0052B4"/>
<path d="M13.0407 9.70588L8.86133 7.38379V9.70588H13.0407Z" fill="#0052B4"/>
<path d="M8.86133 6.54102L14.5582 9.70591V8.81095L10.4723 6.54102H8.86133Z" fill="#F0F0F0"/>
<path d="M8.86133 6.54102L14.5582 9.70591V8.81095L10.4723 6.54102H8.86133Z" fill="#D80027"/>
<path d="M2.56881 6.54102L0 7.96815V6.54102H2.56881Z" fill="#0052B4"/>
<path d="M5.69661 6.94336V9.70581H0.724609L5.69661 6.94336Z" fill="#0052B4"/>
<path d="M4.08586 6.54102L0 8.81095V9.70591L5.69683 6.54102H4.08586Z" fill="#D80027"/>
<path d="M3.3614 3.16533L0 1.29785V3.16533H3.3614Z" fill="#0052B4"/>
<path d="M5.69683 3.16489L0 0V0.894952L4.08586 3.16489H5.69683Z" fill="#0052B4"/>
<path d="M1.51758 0L5.69696 2.32209V0H1.51758Z" fill="#0052B4"/>
<path d="M5.69683 3.16489L0 0V0.894952L4.08586 3.16489H5.69683Z" fill="#F0F0F0"/>
<path d="M5.69683 3.16489L0 0V0.894952L4.08586 3.16489H5.69683Z" fill="#D80027"/>
<path d="M11.9902 3.16542L14.559 1.73828V3.16542H11.9902Z" fill="#0052B4"/>
<path d="M8.86133 2.76245V0H13.8333L8.86133 2.76245Z" fill="#0052B4"/>
<path d="M10.4723 3.16489L14.5582 0.894952V0L8.86133 3.16489H10.4723Z" fill="#D80027"/>
</svg>
