<svg width="32" height="24" viewBox="0 0 32 24" fill="none" xmlns="http://www.w3.org/2000/svg">
<path opacity="0.4" fill-rule="evenodd" clip-rule="evenodd" d="M27.0008 20H24.0008V22C24.0008 23.1046 24.8962 24 26.0008 24H28.0009C29.1054 24 30.0009 23.1046 30.0009 22V19C30.0009 18.8912 29.9919 18.7825 29.974 18.675C29.2165 19.5194 28.1352 20.0012 27.0008 20ZM5.00057 20C3.86617 20.0012 2.78493 19.5194 2.02737 18.6751C2.00953 18.7825 2.00054 18.8912 2.00049 19V22C2.00049 23.1046 2.89594 24 4.00054 24H6.00059C7.10518 24 8.00064 23.1046 8.00064 22V20H5.00057ZM19.9694 4C21.1964 4 22.2996 4.74687 22.7552 5.88588L24.0007 8.99996H8.00033L9.24599 5.88561C9.70168 4.74665 10.8049 3.99989 12.0317 4H19.9694Z" fill="#0E172C"/>
<path fill-rule="evenodd" clip-rule="evenodd" d="M23.0011 14.9906C23.0011 13.7943 24.8011 12 26.0011 12C27.2012 12 28.0012 12.7975 28.0012 13.9937C28.0012 15.19 27.2012 15.9874 26.0011 15.9874C24.8011 15.9874 23.0011 16.1874 23.0011 14.9906V14.9906ZM6.00054 12C7.20057 12 9.00062 13.7943 9.00062 14.9906C9.00062 16.1868 7.20058 15.9874 6.00054 15.9874C4.80051 15.9874 4.00048 15.1874 4.00048 13.9937C4.00048 12.8 4.80051 12 6.00054 12V12ZM9.24611 5.88562C9.7018 4.74667 10.805 3.9999 12.0318 4.00001H19.9695C21.1966 4.00001 22.2997 4.74689 22.7553 5.88588L24.0009 8.99998H8.00045L9.24611 5.88562ZM31.2511 6.99999H27.5085L26.4684 4.40002C25.4135 1.73622 22.8347 -0.00969429 19.9695 4.05013e-05H12.0318C9.1664 -0.0095094 6.58736 1.73625 5.53164 4.40002L4.49224 6.99999H0.750263C0.519437 7.00022 0.301581 7.10672 0.159615 7.28871C0.0176483 7.47071 -0.0326059 7.70793 0.0233728 7.93186L0.398384 9.43185C0.481776 9.76547 0.781382 9.99963 1.12527 9.99997L2.38031 9.99996C1.50669 10.7523 1.00307 11.8471 1.00027 12.9999V15.9999C1.00027 18.209 2.79117 19.9999 5.00037 19.9999H27.001C29.2102 19.9999 31.0011 18.209 31.0011 15.9999V12.9999C30.9982 11.8472 30.4948 10.7526 29.6216 9.99996H30.8761C31.2201 9.99997 31.52 9.76579 31.6035 9.43196L31.9786 7.93186C32.0346 7.70782 31.9843 7.47048 31.8422 7.28846C31.7001 7.10644 31.482 7.00002 31.2511 6.99999L31.2511 6.99999Z" fill="#0E172C"/>
</svg>
