<svg width="46" height="34" viewBox="0 0 46 34" fill="none" xmlns="http://www.w3.org/2000/svg">
<path opacity="0.4" fill-rule="evenodd" clip-rule="evenodd" d="M38.1669 28.1258H33.9481V30.9384C33.9481 32.4917 35.2073 33.751 36.7607 33.751H39.5732C41.1266 33.751 42.3858 32.4918 42.3858 30.9384V26.7195C42.3857 26.5664 42.3731 26.4136 42.348 26.2625C41.2827 27.4499 39.7622 28.1275 38.1669 28.1258ZM7.22863 28.1258C5.63339 28.1275 4.11289 27.4499 3.04757 26.2625C3.02248 26.4136 3.00984 26.5664 3.00977 26.7195V30.9384C3.00977 32.4917 4.269 33.751 5.82234 33.751H8.63491C10.1882 33.751 11.4475 32.4918 11.4475 30.9384V28.1258H7.22863ZM28.279 5.62524C30.0045 5.62524 31.5558 6.67556 32.1965 8.27734L33.9481 12.6567H11.4475L13.1992 8.27697C13.84 6.67525 15.3914 5.62508 17.1166 5.62524H28.279Z" fill="#0E172C"/>
<path fill-rule="evenodd" clip-rule="evenodd" d="M32.5418 21.0812C32.5418 19.3989 35.0731 16.8755 36.7607 16.8755C38.4482 16.8755 39.5732 17.997 39.5732 19.6793C39.5732 21.3616 38.4482 22.4831 36.7607 22.4831C35.0731 22.4831 32.5418 22.7643 32.5418 21.0812V21.0812ZM8.63494 16.8755C10.3225 16.8755 12.8538 19.3989 12.8538 21.0812C12.8538 22.7634 10.3225 22.4831 8.63494 22.4831C6.9474 22.4831 5.82236 21.358 5.82236 19.6793C5.82236 18.0005 6.94739 16.8755 8.63494 16.8755V16.8755ZM13.1992 8.27694C13.84 6.67523 15.3915 5.62505 17.1166 5.62521H28.279C30.0045 5.62521 31.5559 6.67554 32.1965 8.2773L33.9481 12.6566H11.4475L13.1992 8.27694ZM44.1437 9.84407H38.8807L37.4181 6.18773C35.9345 2.44164 32.3081 -0.013633 28.279 5.69568e-05H17.1166C13.0871 -0.013373 9.46035 2.44168 7.97574 6.18773L6.51408 9.84407H1.25193C0.927327 9.84439 0.620967 9.99416 0.421327 10.2501C0.221687 10.506 0.151017 10.8396 0.229737 11.1545L0.757097 13.264C0.874367 13.7331 1.29569 14.0624 1.77929 14.0629L3.54418 14.0629C2.31565 15.1209 1.60744 16.6605 1.6035 18.2818V22.5006C1.6035 25.6073 4.12196 28.1258 7.22865 28.1258H38.167C41.2737 28.1258 43.7921 25.6073 43.7921 22.5006V18.2818C43.788 16.6607 43.0802 15.1213 41.8523 14.0629H43.6163C44.1001 14.0629 44.5219 13.7336 44.6394 13.2641L45.1668 11.1545C45.2455 10.8395 45.1747 10.5057 44.9749 10.2497C44.7751 9.99376 44.4684 9.84411 44.1437 9.84406L44.1437 9.84407Z" fill="#0E172C"/>
</svg>
