<svg width="28" height="21" viewBox="0 0 28 21" fill="none" xmlns="http://www.w3.org/2000/svg">
<path fill-rule="evenodd" clip-rule="evenodd" d="M20.9993 10.937C19.9493 10.937 18.3743 12.5076 18.3743 13.5543C18.3743 14.6016 19.9493 14.4271 20.9993 14.4271C22.0493 14.4271 22.7493 13.7293 22.7493 12.6821C22.7493 11.6354 22.0493 10.937 20.9993 10.937ZM6.99932 10.937C5.94932 10.937 5.24932 11.6348 5.24932 12.6821C5.24932 13.7293 5.94932 14.4271 6.99932 14.4271C8.04932 14.4271 9.62432 14.6016 9.62432 13.5543C9.62432 12.5076 8.04932 10.937 6.99932 10.937ZM24.4993 14.875C24.4993 15.3574 24.1067 15.75 23.6243 15.75H4.37432C3.89198 15.75 3.49932 15.3574 3.49932 14.875V12.25C3.49932 10.8025 4.67674 9.62504 6.12432 9.62504H21.8743C23.3219 9.62504 24.4993 10.8025 24.4993 12.25V14.875ZM7.66104 3.72152C7.92901 3.05543 8.56612 2.62502 9.28417 2.62502H18.7145C19.4325 2.62502 20.0696 3.05542 20.3376 3.72152L21.6572 6.99947H6.34143L7.66104 3.72152ZM27.3425 7.00059H24.4873L22.7723 2.7415C22.1062 1.08503 20.4995 0 18.7145 0H9.28417C7.49917 0 5.89244 1.08503 5.2258 2.74097L3.5108 7.00003H0.656108C0.228998 7.00003 -0.0843615 7.40143 0.0195485 7.81541L0.347678 9.12793C0.420868 9.41992 0.683208 9.62479 0.984238 9.62503H1.60276C1.14995 10.3994 0.874318 11.2881 0.874318 12.2495V19.6875C0.874318 20.4121 1.46221 21 2.18682 21H3.06182C3.78643 21 4.37432 20.4121 4.37432 19.6875V18.375H23.6243V19.6875C23.6243 20.4121 24.2122 21 24.9368 21H25.8118C26.5365 21 27.1243 20.4121 27.1243 19.6875V12.25C27.1243 11.2881 26.8487 10.3994 26.3965 9.62559H27.015C27.3163 9.62559 27.5788 9.42051 27.6515 9.12848L27.9797 7.81598C28.083 7.40143 27.7697 7.00058 27.3426 7.00058L27.3425 7.00059Z" fill="#F1592D"/>
</svg>
