<svg width="20" height="16" viewBox="0 0 20 16" fill="none" xmlns="http://www.w3.org/2000/svg">
<path d="M6.91536 11.3337H8.91536C10.582 11.3337 11.2487 10.667 11.2487 9.00033V7.00033C11.2487 5.33366 10.582 4.66699 8.91536 4.66699H6.91536C5.2487 4.66699 4.58203 5.33366 4.58203 7.00033V9.00033C4.58203 10.667 5.2487 11.3337 6.91536 11.3337Z" stroke="#F1592D" strokeWidth="1.5" strokeLinecap="round" strokeLinejoin="round"/>
<path d="M14.166 14.6668H5.83268C2.49935 14.6668 1.66602 13.8335 1.66602 10.5002V5.50016C1.66602 2.16683 2.49935 1.3335 5.83268 1.3335H14.166C17.4993 1.3335 18.3327 2.16683 18.3327 5.50016V10.5002C18.3327 13.8335 17.4993 14.6668 14.166 14.6668Z" stroke="#F1592D" strokeWidth="1.5" strokeLinecap="round" strokeLinejoin="round"/>
</svg>
