<svg width="19" height="19" viewBox="0 0 19 19" fill="none" xmlns="http://www.w3.org/2000/svg">
<path d="M13 10.2875V13.9625C13 17.025 11.775 18.25 8.7125 18.25H5.0375C1.975 18.25 0.75 17.025 0.75 13.9625V10.2875C0.75 7.225 1.975 6 5.0375 6H8.7125C11.775 6 13 7.225 13 10.2875Z" stroke="#F1592D" stroke-width="1.5" stroke-linecap="round" stroke-linejoin="round"/>
<path d="M18.25 5.0375V8.7125C18.25 11.775 17.025 13 13.9625 13H13V10.2875C13 7.225 11.775 6 8.7125 6H6V5.0375C6 1.975 7.225 0.75 10.2875 0.75H13.9625C17.025 0.75 18.25 1.975 18.25 5.0375Z" stroke="#F1592D" stroke-width="1.5" stroke-linecap="round" stroke-linejoin="round"/>
</svg>
