<svg width="9" height="10" viewBox="0 0 9 10" fill="none" xmlns="http://www.w3.org/2000/svg">
<g clip-path="url(#clip0_280_2772)">
<path d="M4.97275 1.8502L1.894 5.10895C1.77775 5.2327 1.66525 5.47645 1.64275 5.6452L1.504 6.8602C1.45525 7.29895 1.77025 7.59895 2.20525 7.52395L3.41275 7.3177C3.5815 7.2877 3.81775 7.16395 3.934 7.03645L7.01275 3.7777C7.54525 3.2152 7.78525 2.57395 6.9565 1.7902C6.1315 1.01395 5.50525 1.2877 4.97275 1.8502V1.8502Z" stroke="#F1592D" strokeMiterlimit="10" strokeLinecap="round" strokeLinejoin="round"/>
<path d="M4.45898 2.39355C4.5376 2.89637 4.78096 3.35885 5.15086 3.7084C5.52077 4.05794 5.99627 4.27475 6.50273 4.3248" stroke="#F1592D" strokeMiterlimit="10" strokeLinecap="round" strokeLinejoin="round"/>
</g>
<defs>
<clipPath id="clip0_280_2772">
<rect width="9" height="9" fill="white" transform="translate(0 0.5)"/>
</clipPath>
</defs>
</svg>
