<svg width="85" height="71" viewBox="0 0 85 71" fill="none" xmlns="http://www.w3.org/2000/svg">
<path d="M30.2136 17.0615L58.0651 10.6553L63.6476 34.9259L35.7966 41.3321L30.2136 17.0615Z" fill="#F1F3F9" stroke="#D6DCE8" stroke-width="2" stroke-miterlimit="10"/>
<path d="M33.5479 18.8076L55.8288 13.6826L56.3784 16.0701L34.0974 21.1951L33.5479 18.8076Z" fill="#D6DCE8"/>
<path d="M28.7648 14.0645C28.6243 13.7375 28.5496 13.386 28.5449 13.0302C28.5402 12.6743 28.6057 12.321 28.7376 11.9905C28.8694 11.6599 29.0651 11.3586 29.3134 11.1037C29.5617 10.8487 29.8579 10.6452 30.1848 10.5047L51.4615 1.3598C51.7885 1.21929 52.1399 1.14456 52.4958 1.13988C52.8517 1.1352 53.205 1.20066 53.5355 1.33252C53.8661 1.46438 54.1674 1.66006 54.4223 1.90839C54.6773 2.15671 54.8808 2.45282 55.0213 2.7798L56.3692 5.91627L30.1127 17.2015L28.7648 14.0645Z" fill="white" stroke="#D6DCE8" stroke-width="2" stroke-miterlimit="10"/>
<path d="M30.0001 10.584L29.5703 10.7688C29.2175 10.9203 28.9146 11.1681 28.6964 11.4839C28.4781 11.7997 28.3532 12.1706 28.3362 12.5541L32.8547 16.0228L35.5663 14.8575L30.0001 10.584Z" fill="#D6DCE8"/>
<path d="M40.7699 12.6212L38.0584 13.7865L32.4922 9.51292L35.2037 8.34766L40.7699 12.6212Z" fill="#D6DCE8"/>
<path d="M45.9733 10.3849L43.2617 11.5501L37.6956 7.2766L40.4076 6.11133L45.9738 10.3849H45.9733Z" fill="#D6DCE8"/>
<path d="M51.1769 8.14855L48.4654 9.31382L42.8992 5.04027L45.6113 3.875L51.1775 8.14855H51.1769Z" fill="#D6DCE8"/>
<path d="M56.361 5.89705L56.3697 5.9171L53.669 7.07749L48.1028 2.80394L50.8149 1.63867L56.361 5.89705Z" fill="#D6DCE8"/>
<path d="M68.1638 65.9915L42.9111 52.0896L60.0145 21.0219C60.1466 20.7808 60.3248 20.568 60.5391 20.3958C60.7534 20.2236 60.9996 20.0953 61.2635 20.0183C61.5274 19.9413 61.8039 19.9171 62.0772 19.947C62.3505 19.9769 62.6152 20.0604 62.8562 20.1927L81.0132 30.189L83.3698 38.3708L68.1638 65.9915Z" fill="#F1F3F9" stroke="#D6DCE8" stroke-width="2" stroke-miterlimit="10"/>
<path d="M53.9857 51.3363L50.1658 49.2334C50.0232 49.1548 50.0503 48.8361 50.2189 48.5293C50.388 48.2226 50.6427 48.0302 50.7853 48.1082L54.6052 50.2111C54.7477 50.2897 54.7206 50.6084 54.5521 50.9152C54.3548 51.2729 54.1282 51.4143 53.9857 51.3363Z" fill="#D5DDEA"/>
<path d="M71.6587 33.068L62.149 27.8324C61.9279 27.7105 61.8807 27.3468 62.0477 27.0438C62.2146 26.7408 62.5468 26.5858 62.7679 26.7078L72.2782 31.9433C72.4993 32.0648 72.5459 32.429 72.379 32.7319C72.2126 33.0344 71.8798 33.1899 71.6587 33.068Z" fill="#D6DCE8"/>
<path d="M63.9142 32.2238L60.6585 30.4315C60.4617 30.3231 60.4363 29.9708 60.6026 29.6678C60.7696 29.3654 61.0807 29.1985 61.2774 29.3063L64.5055 31.084C64.7022 31.1924 64.7277 31.5447 64.5607 31.8471C64.3944 32.1496 64.0827 32.3165 63.9142 32.2238Z" fill="#D6DCE8"/>
<path d="M70.1818 51.9479L58.7811 45.6711L57.5248 44.9796L53.725 42.8875C53.5716 42.8029 53.2892 42.9525 53.1087 43.281C52.9537 43.5623 52.9217 43.9108 53.1055 44.0121L56.9059 46.1042L58.1622 46.7957L69.5623 53.0719C69.7157 53.1565 69.998 53.0069 70.1785 52.6784C70.3287 52.3337 70.3352 52.0319 70.1818 51.9473V51.9479Z" fill="#D6DCE8"/>
<path d="M71.8325 48.9483L67.5958 46.6156L66.1525 45.821L55.3763 39.8885C55.2229 39.8039 54.9405 39.9535 54.76 40.2819C54.605 40.5632 54.573 40.9117 54.7573 41.0136L65.5336 46.9462L66.9763 47.7402L71.213 50.0729C71.367 50.1575 71.6493 50.0079 71.8298 49.6794C71.98 49.3347 71.9859 49.0328 71.8325 48.9477V48.9483Z" fill="#D6DCE8"/>
<path d="M73.3053 46.3384L72.204 45.7325L71.1032 45.1265L56.8203 37.2634C56.6674 37.1789 56.385 37.329 56.2046 37.6574C56.0501 37.9387 56.0176 38.2872 56.2008 38.388L70.4837 46.2512L71.707 46.9248L72.6554 47.4468C72.8083 47.5308 73.0901 47.3806 73.2706 47.0527C73.4559 46.7883 73.4581 46.423 73.3053 46.339V46.3384Z" fill="#D6DCE8"/>
<path d="M74.9323 43.3259L71.385 41.3737L70.5059 40.8897L58.469 34.2629C58.3172 34.1794 58.0365 34.3301 57.856 34.6585C57.701 34.9398 57.6679 35.2872 57.8495 35.3875L69.8864 42.0143L70.7661 42.4983L74.283 44.4348C74.4949 44.5514 74.7453 44.3839 74.9258 44.0555C75.0808 43.7747 75.1144 43.4268 74.9323 43.3265V43.3259Z" fill="#D6DCE8"/>
<path d="M80.8923 30.4092L79.552 32.8438C79.346 33.2179 79.2157 33.6289 79.1686 34.0533C79.1214 34.4778 79.1583 34.9073 79.2772 35.3175C79.3961 35.7277 79.5946 36.1104 79.8614 36.4439C80.1282 36.7773 80.458 37.055 80.8321 37.2609L83.2489 38.591" fill="#F1F3F9"/>
<path d="M80.8923 30.4092L79.552 32.8438C79.346 33.2179 79.2157 33.6289 79.1686 34.0533C79.1214 34.4778 79.1583 34.9073 79.2772 35.3175C79.3961 35.7277 79.5946 36.1104 79.8614 36.4439C80.1282 36.7773 80.458 37.055 80.8321 37.2609L83.2489 38.591" stroke="#D6DCE8" stroke-width="2" stroke-miterlimit="10"/>
<path d="M40.1005 54.7406L13.0771 64.7765L0.730685 31.5312C0.634389 31.2737 0.589788 30.9998 0.599432 30.7251C0.609076 30.4504 0.672776 30.1803 0.786889 29.9302C0.901002 29.6801 1.06329 29.455 1.26447 29.2677C1.46566 29.0804 1.70179 28.9346 1.95936 28.8386L21.3895 21.6221L29.1236 25.1835L40.101 54.7406H40.1005Z" fill="#F1F3F9" stroke="#D6DCE8" stroke-width="2" stroke-miterlimit="10"/>
<path d="M21.4768 21.8584L22.4437 24.4643C22.7439 25.2727 23.353 25.9288 24.137 26.2882C24.9209 26.6476 25.8156 26.6809 26.624 26.3807L29.2098 25.4203" fill="#F1F3F9"/>
<path d="M21.4768 21.8584L22.4437 24.4643C22.7439 25.2727 23.353 25.9288 24.137 26.2882C24.9209 26.6476 25.8156 26.6809 26.624 26.3807L29.2098 25.4203" stroke="#D6DCE8" stroke-width="2" stroke-miterlimit="10"/>
<path d="M30.1117 43.6203L24.1819 40.4535C23.0583 39.8541 21.6606 40.3858 21.1863 41.5939L19.0953 46.9216L17.9545 46.3167C16.8239 45.7178 15.4218 46.2614 14.9573 47.4793L14.0636 49.819C13.3947 51.5702 15.0641 53.2818 16.793 52.6173L24.3559 49.7101L29.8462 47.5747C31.5718 46.9042 31.7339 44.4864 30.1117 43.6203Z" fill="#D6DCE8"/>
<path d="M14.6684 42.7491C16.0656 42.0141 16.6466 40.399 15.9881 39.0788C15.3296 37.7579 13.7145 37.2983 12.3173 38.0327C10.92 38.7682 10.3396 40.3833 10.9981 41.7041C11.656 43.0244 13.2711 43.4846 14.6684 42.7491Z" fill="#D6DCE8"/>
<path d="M61.6162 65.6675C61.6162 66.8175 61.1594 67.9203 60.3463 68.7334C59.5331 69.5466 58.4303 70.0034 57.2803 70.0034H33.3029C32.153 70.0034 31.0501 69.5466 30.237 68.7334C29.4239 67.9203 28.967 66.8175 28.967 65.6675V29.8363C28.9663 29.525 29.0269 29.2165 29.1454 28.9286C29.264 28.6407 29.4381 28.379 29.6579 28.1585C29.8777 27.938 30.1388 27.7629 30.4263 27.6434C30.7138 27.5239 31.022 27.4622 31.3334 27.4619H54.8089L61.6162 34.2925V65.6675Z" fill="white" stroke="#D6DCE8" stroke-width="2" stroke-miterlimit="10"/>
<path d="M54.8088 27.7461V31.3248C54.8088 32.1873 55.1515 33.0144 55.7613 33.6243C56.3712 34.2341 57.1983 34.5767 58.0607 34.5767H61.6162" fill="#F1F3F9"/>
<path d="M54.8088 27.7461V31.3248C54.8088 32.1873 55.1515 33.0144 55.7613 33.6243C56.3712 34.2341 57.1983 34.5767 58.0607 34.5767H61.6162" stroke="#D6DCE8" stroke-width="2" stroke-miterlimit="10"/>
<path d="M40.7606 40.9106C42.14 40.0142 43.7264 39.5312 45.5192 39.5312C50.2784 39.5312 54.1406 43.3934 54.1406 48.1521C54.1406 52.9107 50.2784 56.7734 45.5198 56.7734C40.7612 56.7734 36.8984 52.9112 36.8984 48.1521C36.8984 45.1175 38.416 42.497 40.7606 40.9106Z" fill="#D6DCE8" stroke="#AAB2C5" stroke-width="2" stroke-miterlimit="10"/>
<path d="M41.9009 46.0195L42.2802 46.4065L41.9009 46.0195C41.6353 46.2802 41.5291 46.6379 41.5291 46.9539C41.5291 47.2699 41.6347 47.6276 41.9014 47.8888C42.4613 48.4373 43.2873 48.4373 43.8471 47.8888L44.1127 47.6281V51.8133C44.1127 52.6307 44.8151 53.177 45.4931 53.177C46.3007 53.177 46.8736 52.5049 46.8736 51.8133V47.6281L47.1391 47.8883C47.6996 48.4373 48.5255 48.4373 49.0849 47.8883C49.3526 47.6271 49.5098 47.2861 49.5098 46.9198C49.5098 46.5539 49.3526 46.213 49.0854 45.9512L46.5012 43.4185C46.2942 43.2158 46.0102 43.1671 45.8693 43.1486C45.7029 43.127 45.5332 43.127 45.4324 43.127H45.4232C45.1094 43.127 44.7501 43.2278 44.4856 43.4874L41.9014 46.0195H41.9009Z" fill="white"/>
<path d="M41.9009 46.0195L42.2802 46.4065L41.9009 46.0195ZM41.9009 46.0195C41.6353 46.2802 41.5291 46.6379 41.5291 46.9539C41.5291 47.2699 41.6347 47.6276 41.9014 47.8888C42.4613 48.4373 43.2873 48.4373 43.8471 47.8888L44.1127 47.6281V51.8133C44.1127 52.6307 44.8151 53.177 45.4931 53.177C46.3007 53.177 46.8736 52.5049 46.8736 51.8133V47.6281L47.1391 47.8883C47.6996 48.4373 48.5255 48.4373 49.0849 47.8883C49.3526 47.6271 49.5098 47.2861 49.5098 46.9198C49.5098 46.5539 49.3526 46.213 49.0854 45.9512L46.5012 43.4185C46.2942 43.2158 46.0102 43.1671 45.8693 43.1486C45.7029 43.127 45.5332 43.127 45.4324 43.127H45.4232C45.1094 43.127 44.7501 43.2278 44.4856 43.4874L41.9014 46.0195H41.9009Z" stroke="#AAB2C5" stroke-width="2"/>
</svg>
