<svg width="354" height="117" viewBox="0 0 354 117" fill="none" xmlns="http://www.w3.org/2000/svg">
<path d="M32.2073 4.47298L79.0951 0.132729L77.6977 17.8941L32.2073 4.47298Z" fill="#EA0000"/>
<ellipse cx="231" cy="66.5" rx="5" ry="4.5" fill="#9F00EA"/>
<circle cx="24.5" cy="53.5" r="11.5" fill="#EAA900"/>
<rect width="32.9983" height="16.5015" transform="matrix(0.702261 -0.711919 0.716698 0.697384 125 105.492)" fill="#EAA900"/>
<path d="M96.2698 39C96.2698 39 94.6703 29.8427 99.2606 28.0175C103.117 26.4842 106.46 33.2651 109.629 30.8067C112.838 28.3166 104.826 24.3716 107.435 21.3932C110.182 18.2585 119 21.3932 119 21.3932" stroke="#005EEA" stroke-width="1.2"/>
<path d="M302.572 15.2914C307.957 15.8334 313.192 7.64109 312.587 13.6476C311.983 19.6542 307.127 24.084 301.742 23.542C296.356 23 292.481 17.6913 293.085 11.6848C293.69 5.67822 297.187 14.7494 302.572 15.2914Z" fill="#005EEA"/>
<path d="M283.5 62L287.204 73.4012H299.192L289.494 80.4476L293.198 91.8488L283.5 84.8024L273.802 91.8488L277.506 80.4476L267.808 73.4012H279.796L283.5 62Z" fill="#05EA00"/>
<path d="M60.5 64L62.6329 70.5643H69.535L63.9511 74.6213L66.084 81.1857L60.5 77.1287L54.916 81.1857L57.0489 74.6213L51.465 70.5643H58.3671L60.5 64Z" fill="#EAD300"/>
</svg>
