
<svg width="85" height="71" viewBox="0 0 85 71" fill="none" xmlns="http://www.w3.org/2000/svg">
<path d="M30.2136 17.1494L58.0651 10.7432L63.6476 35.0138L35.7966 41.42L30.2136 17.1494Z" fill="#F1F3F9" stroke="#D6DCE8" stroke-width="2" stroke-miterlimit="10"/>
<path d="M33.5479 18.896L55.8288 13.771L56.3784 16.1584L34.0974 21.2834L33.5479 18.896Z" fill="#D6DCE8"/>
<path d="M28.7648 14.1524C28.6243 13.8254 28.5496 13.4739 28.5449 13.1181C28.5402 12.7622 28.6057 12.4089 28.7376 12.0784C28.8694 11.7478 29.0651 11.4465 29.3134 11.1915C29.5617 10.9366 29.8579 10.7331 30.1848 10.5926L51.4615 1.44769C51.7885 1.30718 52.1399 1.23245 52.4958 1.22777C52.8517 1.22309 53.205 1.28855 53.5355 1.42041C53.8661 1.55227 54.1674 1.74795 54.4223 1.99628C54.6773 2.2446 54.8808 2.54071 55.0213 2.86769L56.3692 6.00416L30.1127 17.2894L28.7648 14.1524Z" fill="white" stroke="#D6DCE8" stroke-width="2" stroke-miterlimit="10"/>
<path d="M30.0001 10.6719L29.5703 10.8567C29.2175 11.0082 28.9146 11.256 28.6964 11.5718C28.4781 11.8876 28.3532 12.2585 28.3362 12.642L32.8547 16.1107L35.5663 14.9454L30.0001 10.6719Z" fill="#D6DCE8"/>
<path d="M40.7699 12.7091L38.0584 13.8744L32.4922 9.60081L35.2037 8.43555L40.7699 12.7091Z" fill="#D6DCE8"/>
<path d="M45.9733 10.4728L43.2617 11.638L37.6956 7.36449L40.4076 6.19922L45.9738 10.4728H45.9733Z" fill="#D6DCE8"/>
<path d="M51.1769 8.23595L48.4654 9.40122L42.8992 5.12767L45.6113 3.9624L51.1775 8.23595H51.1769Z" fill="#D6DCE8"/>
<path d="M56.361 5.98445L56.3697 6.0045L53.669 7.16489L48.1028 2.89134L50.8149 1.72607L56.361 5.98445Z" fill="#D6DCE8"/>
<path d="M68.1638 66.0794L42.9111 52.1774L60.0145 21.1098C60.1466 20.8687 60.3248 20.6559 60.5391 20.4837C60.7534 20.3115 60.9996 20.1832 61.2635 20.1062C61.5274 20.0292 61.8039 20.005 62.0772 20.0349C62.3505 20.0648 62.6152 20.1483 62.8562 20.2806L81.0132 30.2769L83.3698 38.4587L68.1638 66.0794Z" fill="#F1F3F9" stroke="#D6DCE8" stroke-width="2" stroke-miterlimit="10"/>
<path d="M53.9857 51.4247L50.1658 49.3218C50.0232 49.2432 50.0503 48.9245 50.2189 48.6177C50.388 48.311 50.6427 48.1185 50.7853 48.1966L54.6052 50.2995C54.7477 50.3781 54.7206 50.6968 54.5521 51.0035C54.3548 51.3612 54.1282 51.5027 53.9857 51.4247Z" fill="#D5DDEA"/>
<path d="M71.6587 33.1559L62.149 27.9203C61.9279 27.7983 61.8807 27.4347 62.0477 27.1317C62.2146 26.8287 62.5468 26.6737 62.7679 26.7957L72.2782 32.0312C72.4993 32.1526 72.5459 32.5169 72.379 32.8198C72.2126 33.1223 71.8798 33.2778 71.6587 33.1559Z" fill="#D6DCE8"/>
<path d="M63.9142 32.3122L60.6585 30.5199C60.4617 30.4115 60.4363 30.0592 60.6026 29.7562C60.7696 29.4538 61.0807 29.2869 61.2774 29.3947L64.5055 31.1724C64.7022 31.2808 64.7277 31.6331 64.5607 31.9355C64.3944 32.238 64.0827 32.4049 63.9142 32.3122Z" fill="#D6DCE8"/>
<path d="M70.1818 52.0362L58.7811 45.7595L57.5248 45.0679L53.725 42.9759C53.5716 42.8913 53.2892 43.0409 53.1087 43.3694C52.9537 43.6506 52.9217 43.9991 53.1055 44.1005L56.9059 46.1925L58.1622 46.8841L69.5623 53.1603C69.7157 53.2449 69.998 53.0953 70.1785 52.7668C70.3287 52.4221 70.3352 52.1202 70.1818 52.0357V52.0362Z" fill="#D6DCE8"/>
<path d="M71.8325 49.0362L67.5958 46.7035L66.1525 45.9089L55.3763 39.9764C55.2229 39.8918 54.9405 40.0414 54.76 40.3698C54.605 40.6511 54.573 40.9996 54.7573 41.1015L65.5336 47.0341L66.9763 47.8281L71.213 50.1608C71.367 50.2454 71.6493 50.0958 71.8298 49.7673C71.98 49.4226 71.9859 49.1207 71.8325 49.0356V49.0362Z" fill="#D6DCE8"/>
<path d="M73.3053 46.4263L72.204 45.8204L71.1032 45.2144L56.8203 37.3513C56.6674 37.2668 56.385 37.4169 56.2046 37.7453C56.0501 38.0266 56.0176 38.3751 56.2008 38.4759L70.4837 46.339L71.707 47.0127L72.6554 47.5347C72.8083 47.6187 73.0901 47.4685 73.2706 47.1406C73.4559 46.8761 73.4581 46.5109 73.3053 46.4268V46.4263Z" fill="#D6DCE8"/>
<path d="M74.9323 43.4143L71.385 41.4621L70.5059 40.9781L58.469 34.3513C58.3172 34.2678 58.0365 34.4185 57.856 34.7469C57.701 35.0282 57.6679 35.3756 57.8495 35.4759L69.8864 42.1027L70.7661 42.5867L74.283 44.5232C74.4949 44.6398 74.7453 44.4723 74.9258 44.1438C75.0808 43.8631 75.1144 43.5151 74.9323 43.4149V43.4143Z" fill="#D6DCE8"/>
<path d="M80.8923 30.4976L79.552 32.9322C79.346 33.3062 79.2157 33.7172 79.1686 34.1417C79.1214 34.5661 79.1583 34.9957 79.2772 35.4059C79.3961 35.8161 79.5946 36.1988 79.8614 36.5322C80.1282 36.8657 80.458 37.1434 80.8321 37.3493L83.2489 38.6794" fill="#F1F3F9"/>
<path d="M80.8923 30.4976L79.552 32.9322C79.346 33.3062 79.2157 33.7172 79.1686 34.1417C79.1214 34.5661 79.1583 34.9957 79.2772 35.4059C79.3961 35.816 79.5946 36.1988 79.8614 36.5322C80.1282 36.8657 80.458 37.1434 80.8321 37.3493L83.2489 38.6794" stroke="#D6DCE8" stroke-width="2" stroke-miterlimit="10"/>
<path d="M40.1005 54.829L13.0771 64.8649L0.730685 31.6196C0.634389 31.3621 0.589788 31.0882 0.599432 30.8135C0.609076 30.5388 0.672776 30.2687 0.786889 30.0186C0.901002 29.7685 1.06329 29.5434 1.26447 29.3561C1.46566 29.1688 1.70179 29.023 1.95936 28.927L21.3895 21.7104L29.1236 25.2718L40.101 54.829H40.1005Z" fill="#F1F3F9" stroke="#D6DCE8" stroke-width="2" stroke-miterlimit="10"/>
<path d="M21.4768 21.9463L22.4437 24.5522C22.7439 25.3606 23.353 26.0167 24.137 26.3761C24.9209 26.7355 25.8156 26.7688 26.624 26.4686L29.2098 25.5082" fill="#F1F3F9"/>
<path d="M21.4768 21.9463L22.4437 24.5522C22.7439 25.3606 23.353 26.0167 24.137 26.3761C24.9209 26.7355 25.8156 26.7688 26.624 26.4686L29.2098 25.5082" stroke="#D6DCE8" stroke-width="2" stroke-miterlimit="10"/>
<path d="M30.1117 43.7082L24.1819 40.5414C23.0583 39.942 21.6606 40.4737 21.1863 41.6818L19.0953 47.0095L17.9545 46.4046C16.8239 45.8057 15.4218 46.3493 14.9573 47.5672L14.0636 49.9069C13.3947 51.6581 15.0641 53.3697 16.793 52.7052L24.3559 49.798L29.8462 47.6626C31.5718 46.9921 31.7339 44.5743 30.1117 43.7082Z" fill="#D6DCE8"/>
<path d="M14.6684 42.8375C16.0656 42.1025 16.6466 40.4874 15.9881 39.1671C15.3296 37.8463 13.7145 37.3867 12.3173 38.1211C10.92 38.8566 10.3396 40.4717 10.9981 41.7925C11.656 43.1128 13.2711 43.5729 14.6684 42.8375Z" fill="#D6DCE8"/>
<path d="M61.6162 65.7554C61.6162 66.9053 61.1594 68.0082 60.3463 68.8213C59.5331 69.6345 58.4303 70.0913 57.2803 70.0913H33.3029C32.153 70.0913 31.0501 69.6345 30.237 68.8213C29.4239 68.0082 28.967 66.9053 28.967 65.7554V29.9242C28.9663 29.6129 29.0269 29.3044 29.1454 29.0165C29.264 28.7286 29.4381 28.4669 29.6579 28.2464C29.8777 28.0259 30.1388 27.8508 30.4263 27.7313C30.7138 27.6118 31.022 27.5501 31.3334 27.5498H54.8089L61.6162 34.3804V65.7554Z" fill="white" stroke="#D6DCE8" stroke-width="2" stroke-miterlimit="10"/>
<path d="M54.8088 27.834V31.4127C54.8088 32.2752 55.1515 33.1023 55.7613 33.7122C56.3712 34.322 57.1983 34.6646 58.0607 34.6646H61.6162" fill="#F1F3F9"/>
<path d="M54.8088 27.834V31.4127C54.8088 32.2752 55.1515 33.1023 55.7613 33.7122C56.3712 34.322 57.1983 34.6646 58.0607 34.6646H61.6162" stroke="#D6DCE8" stroke-width="2" stroke-miterlimit="10"/>
<path d="M40.7606 40.9985C42.14 40.102 43.7264 39.6191 45.5192 39.6191C50.2784 39.6191 54.1406 43.4813 54.1406 48.24C54.1406 52.9986 50.2784 56.8613 45.5198 56.8613C40.7612 56.8613 36.8984 52.9991 36.8984 48.24C36.8984 45.2054 38.416 42.5849 40.7606 40.9985Z" fill="#D6DCE8" stroke="#AAB2C5" stroke-width="2" stroke-miterlimit="10"/>
<path d="M41.9009 46.1079L42.2802 46.4949L41.9009 46.1079C41.6353 46.3686 41.5291 46.7263 41.5291 47.0423C41.5291 47.3583 41.6347 47.716 41.9014 47.9772C42.4613 48.5257 43.2873 48.5257 43.8471 47.9772L44.1127 47.7165V51.9017C44.1127 52.719 44.8151 53.2654 45.4931 53.2654C46.3007 53.2654 46.8736 52.5933 46.8736 51.9017V47.7165L47.1391 47.9767C47.6996 48.5257 48.5255 48.5257 49.0849 47.9767C49.3526 47.7154 49.5098 47.3745 49.5098 47.0081C49.5098 46.6423 49.3526 46.3014 49.0854 46.0396L46.5012 43.5069C46.2942 43.3042 46.0102 43.2554 45.8693 43.237C45.7029 43.2153 45.5332 43.2153 45.4324 43.2153H45.4232C45.1094 43.2153 44.7501 43.3161 44.4856 43.5758L41.9014 46.1079H41.9009Z" fill="white"/>
<path d="M41.9009 46.1079L42.2802 46.4949L41.9009 46.1079ZM41.9009 46.1079C41.6353 46.3686 41.5291 46.7263 41.5291 47.0423C41.5291 47.3583 41.6347 47.716 41.9014 47.9772C42.4613 48.5257 43.2873 48.5257 43.8471 47.9772L44.1127 47.7165V51.9017C44.1127 52.719 44.8151 53.2654 45.4931 53.2654C46.3007 53.2654 46.8736 52.5933 46.8736 51.9017V47.7165L47.1391 47.9767C47.6996 48.5257 48.5255 48.5257 49.0849 47.9767C49.3526 47.7154 49.5098 47.3745 49.5098 47.0081C49.5098 46.6423 49.3526 46.3014 49.0854 46.0396L46.5012 43.5069C46.2942 43.3042 46.0102 43.2554 45.8693 43.237C45.7029 43.2153 45.5332 43.2153 45.4324 43.2153H45.4232C45.1094 43.2153 44.7501 43.3161 44.4856 43.5758L41.9014 46.1079H41.9009Z" stroke="#AAB2C5" stroke-width="2"/>

<svg width="97" height="98" viewBox="0 0 97 98" fill="none" xmlns="http://www.w3.org/2000/svg">
<path fillRule="evenodd" clip-rule="evenodd" d="M0 49.3688C0 22.583 21.7142 0.868771 48.5 0.868771C75.2858 0.868771 97 22.583 97 49.3688C97 76.1546 75.2858 97.8688 48.5 97.8688C21.7142 97.8688 0 76.1546 0 49.3688Z" fill="#F8FAFC"/>
<g opacity="0.4">
<path d="M28.2726 40.8442L28.2704 39.3442C28.2711 39.3442 28.2719 39.3442 28.2726 39.3442C28.3305 39.3441 28.3883 39.3444 28.4461 39.3451C27.8654 33.6735 31.1512 28.1769 36.6468 26.1042C42.0991 24.0478 48.1432 25.9587 51.4692 30.5228C54.5755 27.4766 59.3367 26.6009 63.4012 28.5524C67.5676 30.5527 69.8741 34.9821 69.2883 39.4218C75.6778 40.1265 80.6468 45.5445 80.6449 52.1218V52.1223C80.6446 52.9506 79.9729 53.6219 79.1446 53.6218C79.1116 53.6218 79.0788 53.6207 79.0463 53.6186C78.3143 59.1329 73.5938 63.3895 67.8784 63.3918H28.2726C22.047 63.3918 17.0001 58.3443 17.0001 52.118C17.0001 45.8916 22.047 40.8442 28.2726 40.8442ZM28.2726 40.8442C28.4125 40.844 28.5523 40.8464 28.692 40.8515L28.2726 40.8442ZM68.9846 40.8984C74.195 41.4087 78.3645 45.4669 79.0469 50.6249L68.9846 40.8984Z" fill="#61748D" fill-opacity="0.01" stroke="#61748D" strokeWidth="3" strokeLinejoin="round"/>
<path d="M49.2576 43.6241C48.9734 43.2591 48.5366 43.0455 48.074 43.0455C47.6113 43.0455 47.1745 43.259 46.8903 43.6241L36.0145 57.5945C35.6624 58.0468 35.5989 58.6603 35.8508 59.1752C36.1027 59.6901 36.6261 60.0163 37.1993 60.0159L41.6169 60.0125L41.6123 70.8727C41.6121 71.2706 41.7701 71.6523 42.0514 71.9337C42.3327 72.2152 42.7143 72.3733 43.1123 72.3733H53.075C53.9034 72.3733 54.575 71.7017 54.575 70.8733V60.0147L58.9463 60.0113C59.5191 60.0109 60.0417 59.6843 60.293 59.1696C60.5444 58.6549 60.4807 58.042 60.1288 57.59L49.2576 43.6241Z" fill="#F8FAFC" stroke="#61748D" strokeWidth="3" strokeLinejoin="round"/>
</g>

</svg>
