<svg width="20" height="20" viewBox="0 0 20 20" fill="none" xmlns="http://www.w3.org/2000/svg">
<g clip-path="url(#clip0_279_476)">
<path fillRule="evenodd" clip-rule="evenodd" d="M0 0H19.7619V20H0V0Z" fill="#D94F00"/>
<path fillRule="evenodd" clip-rule="evenodd" d="M11.2433 3.87793H16.3093V8.95412H11.2433V3.87793ZM5.11884 11.5218V12.0184H5.99197V14.6456H6.59401V11.9983H7.40693V11.5017L5.11884 11.5222V11.5218ZM4.66918 12.1375V11.6409C4.18619 11.4225 3.63075 11.3565 3.06204 11.6409C2.12939 12.0579 2.09605 14.1228 3.02904 14.5266C3.56476 14.798 4.68211 14.6721 4.79469 14.4337V12.799H3.68381V13.2293H4.17292V14.0898C2.56578 14.8708 2.26816 11.1181 4.66918 12.1375ZM8.38619 13.2028H8.96136C9.43755 13.2228 9.5634 14.1228 8.94163 14.116H8.38619V13.2028ZM8.38619 11.9388H8.96136C9.43755 12.0249 9.26578 12.733 8.94163 12.7528H8.38619V11.9388ZM7.79095 11.4558V14.6191H9.37156C10.1784 14.3279 10.2117 13.0773 9.37156 12.9446C10.1454 12.8589 10.1852 11.4358 8.84911 11.4358L7.79095 11.4558ZM10.5818 12.3426V12.8123C11.0049 12.6932 11.9243 12.3623 11.8382 13.064C11.0314 13.0109 10.4824 13.1565 10.3899 13.6592C10.2379 14.7449 11.4018 14.8507 11.8913 14.3147V14.5728H12.4467V12.6667C12.308 12.0511 11.3889 11.9718 10.5818 12.3426ZM11.0512 13.567C11.177 13.4014 11.5804 13.4079 11.8515 13.4875V13.9045C11.4086 14.3807 10.6943 14.1626 11.0515 13.5667L11.0512 13.567ZM13.5977 12.9051C13.7433 12.7463 14.5171 12.4483 14.6362 12.9051V14.5861H15.2576V12.8058C15.1253 12.0643 14.4175 11.932 13.558 12.4351V12.1572H12.9695V14.5994H13.5909L13.5977 12.9051ZM17.2086 12.1307L16.3954 13.2225L17.2552 14.566L18.0025 14.5463L17.0569 13.2558L17.91 12.1504L17.209 12.1307H17.2086ZM15.7209 11.3296H16.3358V14.566H15.7205V11.33L15.7209 11.3296Z" fill="white"/>
<path fillRule="evenodd" clip-rule="evenodd" d="M11.2441 3.87793H16.3101V8.95412H11.2441V3.87793Z" fill="white"/>
</g>
<defs>
<clipPath id="clip0_279_476">
<rect width="19.7619" height="20" rx="9.88095" fill="white"/>
</clipPath>
</defs>
</svg>
