<svg width="35" height="43" viewBox="0 0 35 43" fill="none" xmlns="http://www.w3.org/2000/svg">
<path fillRule="evenodd" clip-rule="evenodd" d="M17.7955 25.4932C13.599 25.4932 10.1971 22.0914 10.1971 17.8949C10.1971 13.6985 13.599 10.2966 17.7955 10.2966C21.9919 10.2966 25.3938 13.6985 25.3938 17.8949C25.3938 22.0914 21.9919 25.4932 17.7955 25.4932ZM17.7955 21.6941C19.8937 21.6941 21.5946 19.9931 21.5946 17.8949C21.5946 15.7967 19.8937 14.0958 17.7955 14.0958C15.6972 14.0958 13.9963 15.7967 13.9963 17.8949C13.9963 19.9931 15.6972 21.6941 17.7955 21.6941ZM17.7955 42.0728L5.70652 29.9839C-0.969921 23.3073 -0.969871 12.4826 5.70662 5.80618C12.3831 -0.870282 23.2078 -0.870292 29.8843 5.80618C36.5608 12.4826 36.5608 23.3073 29.8844 29.9839L17.7955 42.0728ZM17.7955 36.7008L27.1984 27.2979C32.3908 22.1049 32.3906 13.6859 27.1978 8.49327C22.005 3.30065 13.586 3.30065 8.39317 8.49327C3.20038 13.6859 3.20009 22.1049 8.39253 27.2979L17.7955 36.7008Z" fill="white"/>
</svg>
