<svg width="113" height="121" viewBox="0 0 113 121" fill="none" xmlns="http://www.w3.org/2000/svg">
<path d="M111.096 64.2824C111.096 94.6864 86.452 119.329 56.048 119.329C25.644 119.329 1 94.6864 1 64.2824C1 47.1764 8.789 31.8984 21.036 21.8064C21.061 21.7814 21.086 21.7814 21.111 21.7564C30.553 13.9674 42.674 9.28438 55.873 9.23438H56.048C56.724 9.23438 57.4 9.23437 58.077 9.25937C61.708 9.38437 65.239 9.85938 68.645 10.6614C92.989 16.3714 111.096 38.2114 111.096 64.2814V64.2824Z" fill="white" stroke="#D6DDE8" stroke-width="2" stroke-miterlimit="10"/>
<path d="M106.387 41.9942C104.609 42.2692 103.858 41.6942 102.831 39.4142C102.33 39.8402 101.854 40.2412 101.228 40.7922C100.878 40.0152 100.602 39.3642 100.302 38.7132C100.026 38.0622 99.726 37.9372 99.099 38.4372C98.674 38.7882 97.872 39.1642 97.522 38.9632C97.121 38.7632 96.921 37.9622 96.871 37.3862C96.795 36.5842 96.871 36.2342 95.694 36.2082C94.416 36.1842 93.139 35.2822 91.711 34.7062C91.486 36.1332 91.261 37.5362 91.011 38.9632C90.384 39.1132 89.758 39.2392 89.131 39.4142C87.153 39.9402 85.951 39.5642 84.749 37.8612C83.948 36.7342 83.296 35.4822 82.395 33.9552C84.048 33.5292 85.475 33.0782 86.953 32.8282C88.305 32.6022 90.91 30.5732 91.261 29.2462C91.286 29.1212 91.311 28.9962 91.311 28.8962C91.061 27.5682 90.81 26.2662 90.534 24.7882C90.309 24.7882 89.833 24.8632 89.407 24.7632C88.606 24.6132 87.905 24.3372 87.554 23.4362C87.404 23.0602 86.903 22.6592 86.502 22.5592C84.474 22.0832 84.022 21.6832 83.847 19.7042C83.797 18.9532 83.822 18.2012 83.847 17.4502C83.847 17.2252 83.872 17.0242 83.872 16.6992C79.1172 13.903 73.9665 11.8427 68.595 10.5882C68.119 11.8902 67.293 12.6172 65.79 12.8172C64.989 12.9172 64.212 13.7692 63.586 14.4202C62.384 15.7222 61.332 17.1252 60.206 18.5272C58.502 17.8262 57.876 16.4232 57.276 14.8962C56.524 12.9922 56.749 11.2142 57.676 9.48616C57.751 9.36116 57.876 9.26116 58.026 9.16016C57.4 9.23616 56.724 9.23616 56.048 9.23616H55.873C55.973 9.31116 56.048 9.38616 56.098 9.48616C56.248 9.71116 56.148 10.3122 55.948 10.5132C54.971 11.3892 53.919 12.1662 52.892 12.9932C51.465 11.2642 50.412 10.9892 48.159 11.6402C47.658 11.7902 46.807 11.8902 46.556 11.6152C45.654 10.6632 45.003 11.2652 44.302 11.7402C43.45 12.3162 42.674 12.9672 41.772 13.4682C40.42 14.2192 40.295 16.7742 40.921 17.7512C41.096 18.0262 41.722 18.2512 42.048 18.1512C43.476 17.8012 44.753 17.1252 45.529 15.8222C45.855 15.2722 46.155 15.3222 46.781 15.3722C47.533 15.4222 48.434 15.0962 49.061 14.6452C50.438 13.6182 50.638 13.5432 51.841 14.7452C52.066 14.9712 52.291 15.2712 52.567 15.4472C53.468 15.9472 53.443 16.5992 52.967 17.3752C52.642 17.9012 52.417 18.4772 52.091 19.1532C52.617 19.2782 53.068 19.3792 53.568 19.4792C53.493 20.0552 53.468 20.6312 53.318 21.1572C52.792 23.0352 51.49 24.5632 49.411 22.8602C48.71 22.2842 47.808 22.4602 47.382 23.2602C46.732 24.5382 45.554 24.6382 44.452 24.5882C41.948 24.4632 39.669 25.1882 37.49 26.3162C37.24 26.4412 36.914 26.6662 36.714 26.6162C35.186 26.1162 34.259 27.2682 33.132 27.8692C32.0308 28.4784 30.903 29.0382 29.752 29.5472C29.025 29.8722 28.599 30.1972 28.549 31.1492C28.424 32.8272 27.998 34.4802 27.672 36.2592C26.295 35.6572 26.045 34.5052 25.894 33.5542C25.519 31.1492 24.392 30.7492 22.664 30.4242C19.483 29.8222 15.35 31.7762 14.024 34.6062C13.497 35.7332 13.497 37.2102 13.623 38.4882C13.723 39.6152 15.1 40.1912 16.403 39.7652C17.179 39.5152 17.98 39.4892 18.156 40.2912C18.256 40.8172 17.73 41.4932 17.379 42.0692C17.229 42.3192 16.853 42.4452 16.603 42.6452C15.801 43.2962 15.751 43.9722 16.603 44.5732C17.203 44.9992 17.253 45.3502 17.079 46.0762C16.327 49.1322 17.805 51.5112 20.86 52.3122C22.037 52.6122 22.864 52.0622 23.615 51.1852C24.116 50.5852 24.492 49.7082 25.519 49.8832C25.794 49.9332 26.095 49.9832 26.32 50.1082C27.773 50.8352 29.175 51.6862 30.653 52.3382C32.005 52.9382 33.333 53.4142 34.259 54.7172C34.635 55.2422 35.386 55.5432 36.012 55.7682C38.692 56.7952 40.721 58.5732 42.173 61.0032C43.125 62.6052 44.001 64.2582 44.878 65.9112C45.328 66.7382 45.88 67.2392 46.857 67.4642C48.935 67.9142 50.914 68.7662 52.492 70.2692C54.019 71.7222 54.22 73.1492 53.092 74.9522C52.642 75.7042 51.891 76.2552 51.39 76.9822C50.789 77.8822 50.112 78.8092 49.812 79.8362C49.086 82.1902 47.833 84.2441 46.231 86.0471C45.529 86.8492 44.327 87.4502 43.275 87.6502C41.447 87.9762 40.445 89.1532 39.519 90.5052C38.742 91.6572 37.816 92.7352 37.214 93.9612C36.263 95.8652 34.409 96.6662 32.832 97.7682C30.427 99.4212 28.699 101.625 27.922 104.355C27.572 105.582 28.198 107.085 28.374 108.437C28.499 109.389 28.674 110.34 28.824 111.367C25.969 110.265 24.166 108.212 22.814 105.782C22.288 104.831 22.238 103.603 21.987 102.501C21.812 101.7 21.812 100.849 21.512 100.122C20.685 98.1442 20.986 96.1402 21.286 94.1622C21.461 93.0102 21.486 91.9322 21.361 90.7312C21.161 89.0282 21.637 87.2492 21.837 85.4962C21.937 84.6452 22.137 83.7932 22.213 82.9422C22.288 82.1402 21.987 81.5142 21.562 80.7882C21.086 79.9362 21.036 78.7592 21.086 77.7322C21.136 77.0822 21.186 76.7562 20.585 76.3302C18.355 74.7772 16.327 72.7242 15.451 70.3202C14.374 67.3142 13.472 63.9332 15.851 60.8272C16.953 59.3752 18.031 57.8222 18.656 56.1192C19.508 53.8152 18.956 52.7632 17.304 51.7862C16.252 51.1862 15.576 50.2842 15.476 49.0562C15.376 47.8042 14.799 46.9032 13.873 46.1262C13.322 45.6762 12.996 45.2252 13.372 44.4232C13.698 43.6722 13.397 43.1212 12.546 42.7202C10.868 41.9442 9.064 41.1422 8.664 39.1142C8.464 38.1372 8.464 36.8842 8.939 36.0582C11.193 32.0262 14.049 28.3952 17.304 25.1382C18.3362 24.1063 19.4055 23.1123 20.51 22.1582C8.588 32.3032 1 47.4042 1 64.2842C1 94.6882 25.644 119.331 56.048 119.331C68.069 119.331 79.189 115.475 88.23 108.938L88.305 108.287C88.631 107.51 88.931 106.734 89.257 105.958C89.883 104.58 90.484 103.178 91.16 101.85C91.787 100.648 91.611 99.4212 91.236 98.2942C90.284 95.3142 91.486 93.0102 93.339 90.9062C93.414 90.8312 93.489 90.7562 93.539 90.6562C94.516 89.5532 95.593 88.5262 95.593 86.9492C95.593 85.6972 95.518 84.3192 95.043 83.1922C94.917 82.8922 94.817 82.5912 94.717 82.2912C94.241 80.5122 94.591 78.8592 95.367 77.2072C95.393 77.1312 95.443 77.0572 95.468 76.9812C95.969 75.8042 96.119 74.6012 95.969 73.4002C95.9433 73.1206 95.8931 72.8439 95.819 72.5732C95.744 72.2982 95.293 71.8472 95.268 71.8472C93.815 72.7742 92.813 71.2712 91.561 71.1962C89.908 71.0962 88.231 70.8202 86.627 71.0462C84.924 71.2962 83.372 70.9702 82.119 70.0442C79.815 68.3412 77.661 66.3872 75.507 64.4842C75.107 64.1342 74.907 63.4072 74.831 62.8562C74.581 60.2262 75.257 57.7222 75.933 55.2172C76.359 53.6652 76.609 52.1872 76.384 50.5092C76.184 48.8562 77.486 47.6542 78.764 46.7022C79.239 46.3522 79.89 46.2022 80.416 45.9012C80.967 45.5752 81.668 45.3002 81.994 44.7992C83.973 41.7942 87.054 41.3932 90.184 41.4432C92.638 41.4932 95.168 41.6182 97.497 42.2692C99.15 42.7202 100.627 43.9722 102.03 45.0492C103.232 45.9512 104.384 46.6272 105.962 46.4522C106.688 46.3772 107.439 46.5522 108.166 46.6522C107.667 45.0652 107.073 43.5097 106.387 41.9942ZM23.24 40.2162C23.59 38.7882 24.868 38.1372 25.794 38.8382C26.996 39.7402 28.299 40.1152 29.776 40.1662C30.126 40.1912 30.452 40.4162 30.803 40.5662C30.753 40.7422 30.728 40.8922 30.678 41.0672C28.198 40.7672 25.744 40.4912 23.24 40.2162ZM33.758 44.6992C32.18 44.5492 30.703 44.3992 29.1 44.2482C30.678 43.0212 32.23 42.2692 34.059 43.9722C33.959 44.2222 33.833 44.5232 33.759 44.6992H33.758ZM69.221 16.8242C69.021 17.3242 68.771 18.1512 68.42 18.2262C67.794 18.3522 67.067 18.0762 66.441 17.8012C65.815 17.5512 65.289 17.1002 64.713 16.7242C64.763 16.5742 64.839 16.3982 64.889 16.2482C65.941 15.8482 66.992 15.3712 68.069 15.0962C68.47 14.9962 69.096 15.2962 69.447 15.6222C69.597 15.8222 69.372 16.4482 69.221 16.8242ZM80.767 26.1662C80.542 25.7402 80.367 25.3392 80.141 24.9132C81.168 24.4632 81.618 23.7612 81.318 22.6342C81.293 22.5342 82.119 22.0582 82.194 22.1342C83.747 23.5862 85.751 24.5382 86.552 26.8172C86.952 27.9442 86.427 28.2942 85.851 28.7452C84.599 29.6972 83.196 29.1712 82.871 27.6682C82.721 27.0422 82.645 26.3912 82.52 25.5652C81.869 25.7652 81.343 25.9402 80.767 26.1652V26.1662Z" fill="#F1F3FA" stroke="#D6DDE8" stroke-width="2" stroke-miterlimit="10"/>
<path d="M83.1682 1C88.5432 1 92.8912 5.439 92.8912 10.928C92.8912 15.307 86.7222 23.975 84.1962 27.334C83.6672 28.054 82.6102 28.054 82.0812 27.334C79.5552 23.974 73.3862 15.307 73.3862 10.928C73.4452 5.439 77.7922 1 83.1682 1Z" fill="#D6DCE8" stroke="#AAB2C5" stroke-width="2" stroke-miterlimit="10"/>
<path d="M82.921 14.8684C83.9556 14.8684 84.9479 14.4574 85.6794 13.7258C86.411 12.9943 86.822 12.002 86.822 10.9674C86.822 9.9328 86.411 8.94056 85.6794 8.20898C84.9479 7.4774 83.9556 7.06641 82.921 7.06641C81.8864 7.06641 80.8942 7.4774 80.1626 8.20898C79.431 8.94056 79.02 9.9328 79.02 10.9674C79.02 12.002 79.431 12.9943 80.1626 13.7258C80.8942 14.4574 81.8864 14.8684 82.921 14.8684Z" fill="white" stroke="#AAB2C5" stroke-width="2" stroke-miterlimit="10"/>
<path fill-rule="evenodd" clip-rule="evenodd" d="M77.6062 31.0824C77.6129 31.367 77.5634 31.6501 77.4606 31.9156C77.3578 32.1811 77.2037 32.4237 77.0071 32.6295C76.8105 32.8354 76.5752 33.0006 76.3148 33.1155C76.0544 33.2304 75.7738 33.2929 75.4892 33.2994C75.3565 33.3022 75.2239 33.3055 75.0912 33.3094C74.5168 33.3276 73.9586 33.1168 73.5396 32.7235C73.1205 32.3301 72.8749 31.7864 72.8567 31.2119C72.8386 30.6375 73.0493 30.0793 73.4427 29.6603C73.8361 29.2412 74.3798 28.9956 74.9542 28.9774L75.3892 28.9654C75.6738 28.9588 75.9569 29.0083 76.2224 29.1111C76.4879 29.2139 76.7305 29.368 76.9363 29.5646C77.1422 29.7612 77.3074 29.9964 77.4223 30.2569C77.5372 30.5173 77.5997 30.7978 77.6062 31.0824ZM80.7792 31.2554C80.8152 30.9731 80.9064 30.7006 81.0476 30.4534C81.1889 30.2063 81.3775 29.9895 81.6026 29.8153C81.8277 29.6411 82.0849 29.5129 82.3596 29.4381C82.6342 29.3633 82.9209 29.3434 83.2032 29.3794L83.4212 29.4084C83.7039 29.4449 83.9767 29.5367 84.2238 29.6787C84.471 29.8207 84.6877 30.0101 84.8615 30.236C85.0354 30.4619 85.1629 30.7199 85.2369 30.9951C85.3109 31.2704 85.3299 31.5575 85.2927 31.8402C85.2556 32.1228 85.163 32.3953 85.0204 32.642C84.8777 32.8888 84.6878 33.105 84.4615 33.2783C84.2352 33.4516 83.9769 33.5785 83.7014 33.6518C83.4259 33.7251 83.1387 33.7433 82.8562 33.7054C82.7896 33.6966 82.7229 33.688 82.6562 33.6794C82.3738 33.6436 82.1012 33.5525 81.8539 33.4113C81.6067 33.2701 81.3897 33.0815 81.2154 32.8564C81.0411 32.6313 80.9129 32.374 80.838 32.0993C80.7632 31.8246 80.7432 31.5379 80.7792 31.2554ZM69.7022 31.5634C69.8117 32.1275 69.6926 32.712 69.3712 33.1884C69.0498 33.6647 68.5523 33.9938 67.9882 34.1034L67.5982 34.1824C67.0349 34.2973 66.449 34.1836 65.9695 33.8665C65.49 33.5494 65.1561 33.0548 65.0412 32.4914C64.9264 31.9281 65.04 31.3422 65.3572 30.8627C65.6743 30.3832 66.1689 30.0493 66.7322 29.9344L67.1612 29.8494C67.7253 29.74 68.3098 29.8591 68.7862 30.1805C69.2625 30.5019 69.5916 30.9994 69.7012 31.5634H69.7022ZM61.9922 33.3774C62.1971 33.9144 62.1803 34.5107 61.9455 35.0352C61.7107 35.5597 61.2771 35.9695 60.7402 36.1744L60.3692 36.3184C60.1042 36.4223 59.8214 36.473 59.5368 36.4675C59.2522 36.4621 58.9715 36.4006 58.7106 36.2867C58.1838 36.0566 57.77 35.6266 57.5602 35.0914C57.3504 34.5562 57.3619 33.9596 57.592 33.4328C57.8221 32.906 58.252 32.4922 58.7872 32.2824L59.1952 32.1254C59.7322 31.9206 60.3285 31.9374 60.853 32.1722C61.3775 32.407 61.7873 32.8405 61.9922 33.3774ZM54.7072 36.4844C55.3172 37.5144 54.9752 38.8444 53.9452 39.4534L53.6052 39.6564C53.3615 39.8035 53.0912 39.901 52.8098 39.9436C52.5283 39.9861 52.2412 39.9728 51.9649 39.9044C51.6886 39.836 51.4285 39.7139 51.1994 39.545C50.9703 39.3761 50.7767 39.1637 50.6297 38.9199C50.4827 38.6762 50.3851 38.4059 50.3426 38.1245C50.3 37.843 50.3133 37.556 50.3817 37.2797C50.5199 36.7216 50.874 36.2413 51.3662 35.9444L51.7392 35.7224C52.2339 35.43 52.8244 35.3459 53.381 35.4888C53.9376 35.6317 54.4147 35.9899 54.7072 36.4844ZM48.0462 40.7714C48.2297 40.989 48.3686 41.2406 48.4548 41.5119C48.541 41.7831 48.573 42.0687 48.5489 42.3523C48.5247 42.6359 48.4449 42.912 48.3141 43.1647C48.1832 43.4175 48.0039 43.642 47.7862 43.8254C47.6862 43.9114 47.5842 43.9964 47.4842 44.0834C47.2683 44.2689 47.0179 44.4099 46.7474 44.4986C46.4769 44.5873 46.1917 44.6218 45.9078 44.6002C45.624 44.5786 45.3472 44.5013 45.0933 44.3728C44.8393 44.2442 44.6132 44.0669 44.4277 43.8509C44.2423 43.635 44.1012 43.3846 44.0126 43.1141C43.9239 42.8437 43.8894 42.5584 43.911 42.2745C43.9325 41.9907 44.0098 41.7139 44.1384 41.46C44.267 41.206 44.4443 40.9799 44.6602 40.7944L44.9922 40.5124C45.2098 40.3289 45.4613 40.19 45.7325 40.1037C46.0037 40.0173 46.2893 39.9853 46.5729 40.0093C46.8565 40.0334 47.1326 40.1131 47.3854 40.2438C47.6382 40.3746 47.8627 40.5539 48.0462 40.7714ZM42.1892 46.1064C42.4079 46.2886 42.5885 46.512 42.7208 46.764C42.8531 47.0159 42.9345 47.2915 42.9603 47.5749C42.9861 47.8583 42.9559 48.144 42.8713 48.4157C42.7867 48.6874 42.6494 48.9398 42.4672 49.1584L42.2172 49.4614C42.0372 49.6819 41.8155 49.8647 41.5648 49.9994C41.3141 50.1342 41.0393 50.2182 40.7562 50.2468C40.473 50.2753 40.187 50.2478 39.9144 50.1658C39.6419 50.0838 39.3882 49.949 39.1677 49.7689C38.9473 49.5889 38.7645 49.3672 38.6298 49.1165C38.495 48.8658 38.411 48.591 38.3824 48.3079C38.3539 48.0247 38.3814 47.7387 38.4633 47.4661C38.5453 47.1936 38.6802 46.9399 38.8602 46.7194L39.1372 46.3844C39.3194 46.1658 39.5428 45.9851 39.7948 45.8528C40.0467 45.7205 40.3222 45.6391 40.6057 45.6133C40.8891 45.5875 41.1748 45.6178 41.4465 45.7024C41.7182 45.787 41.9706 45.9243 42.1892 46.1064ZM37.3852 52.4074C37.6399 52.5346 37.8671 52.7107 38.0537 52.9257C38.2403 53.1407 38.3827 53.3904 38.4728 53.6605C38.5628 53.9305 38.5988 54.2157 38.5787 54.4996C38.5585 54.7836 38.4826 55.0608 38.3552 55.3154L38.2722 55.4824C38.0151 55.9911 37.5679 56.3779 37.0275 56.5591C36.4872 56.7404 35.8972 56.7014 35.3853 56.4508C34.8735 56.2001 34.481 55.7579 34.2928 55.2199C34.1047 54.6819 34.1361 54.0914 34.3802 53.5764L34.4782 53.3774C34.7351 52.8633 35.1857 52.4723 35.7308 52.2904C36.276 52.1085 36.8711 52.1506 37.3852 52.4074Z" fill="#AAB2C5"/>
<path d="M34.4202 10.1016C42.5432 10.1016 49.1132 16.5456 49.1132 24.5136C49.1132 30.8696 39.7912 43.4526 35.9732 48.3286C35.1742 49.3736 33.5762 49.3736 32.7772 48.3286C28.9602 43.4526 19.6382 30.8696 19.6382 24.5126C19.7272 16.5456 26.2972 10.1026 34.4202 10.1026V10.1016Z" fill="#D6DCE8" stroke="#AAB2C5" stroke-width="2" stroke-miterlimit="10"/>
<path d="M34.3762 30.4725C37.4882 30.4725 40.0102 27.8525 40.0102 24.6215C40.0102 21.3895 37.4882 18.7695 34.3762 18.7695C31.2642 18.7695 28.7412 21.3895 28.7412 24.6215C28.7412 27.8535 31.2642 30.4725 34.3762 30.4725Z" fill="white" stroke="#AAB2C5" stroke-width="2" stroke-miterlimit="10"/>
</svg>
