<svg width="20" height="20" viewBox="0 0 20 20" fill="none" xmlns="http://www.w3.org/2000/svg">
<path d="M0 0H20V20H0V0Z" fill="#8934AD"/>
<path d="M3.83025 13.2452C3.83025 13.3887 3.77397 13.5089 3.66145 13.606C3.54892 13.703 3.41741 13.7515 3.26692 13.7515C3.19941 13.7515 3.13401 13.7403 3.07071 13.7178C3.10587 13.7178 3.13752 13.7136 3.16566 13.7051C3.17127 13.7037 3.20222 13.6918 3.2585 13.6693C3.34008 13.6383 3.40338 13.5968 3.44836 13.5448C3.50464 13.4801 3.53274 13.402 3.53274 13.3106C3.53274 13.2797 3.52994 13.2508 3.52432 13.2241C3.51166 13.1453 3.47299 13.0863 3.40829 13.0469C3.34499 13.0075 3.26481 12.9878 3.16776 12.9878C3.13401 12.9878 3.09815 12.9899 3.06015 12.9941L2.98001 13.0047V14.2495C2.98001 14.2903 2.98211 14.3261 2.98632 14.3571C2.99053 14.3866 3.00176 14.414 3.02008 14.4394C3.03131 14.4562 3.04467 14.4724 3.06015 14.4879C3.07779 14.5025 3.09689 14.5152 3.11713 14.5258H2.59601C2.62415 14.5118 2.64103 14.5027 2.64664 14.4984C2.66067 14.4886 2.67338 14.4703 2.6846 14.4436C2.69727 14.4168 2.70573 14.3866 2.70994 14.3528C2.71415 14.3177 2.71625 14.2825 2.71625 14.2474V13.0637V13.0363C2.71625 12.9983 2.71415 12.9688 2.70994 12.9477C2.70713 12.9252 2.69731 12.9013 2.68039 12.876C2.67028 12.8604 2.65823 12.8463 2.64453 12.8338C2.6319 12.8225 2.61429 12.8113 2.5918 12.8H3.23952C3.39846 12.8 3.53348 12.8373 3.64457 12.9118C3.76836 12.9948 3.83025 13.106 3.83025 13.2452ZM6.57625 13.7094C6.57625 13.9372 6.49538 14.1348 6.33362 14.3022C6.1592 14.4822 5.93629 14.5723 5.66481 14.5723C5.36664 14.5723 5.12471 14.4865 4.93902 14.3149C4.75338 14.1418 4.66053 13.926 4.66053 13.6671C4.66053 13.4252 4.74001 13.2171 4.89895 13.0427C5.07197 12.8528 5.29629 12.7578 5.57197 12.7578C5.90534 12.7578 6.16204 12.8577 6.34208 13.0574C6.49818 13.2318 6.57625 13.4491 6.57625 13.7094ZM6.28299 13.6735C6.28299 13.4737 6.23095 13.3085 6.12685 13.1777C6.0059 13.0258 5.83359 12.9498 5.60997 12.9498C5.40881 12.9498 5.24776 13.0258 5.12681 13.1777C5.01709 13.3155 4.96225 13.4843 4.96225 13.684C4.96225 13.888 5.02555 14.0575 5.15215 14.1925C5.28011 14.3261 5.44257 14.3929 5.63948 14.3929C5.83078 14.3929 5.98832 14.317 6.11211 14.1651C6.22601 14.0244 6.28299 13.8605 6.28299 13.6735ZM8.63874 14.1735L8.50583 14.5258H7.40453C7.41997 14.5188 7.43615 14.5118 7.45306 14.5048C7.47676 14.4909 7.49584 14.4703 7.5079 14.4457C7.52203 14.4202 7.53133 14.3923 7.53534 14.3634C7.54095 14.3338 7.54376 14.3015 7.54376 14.2663V13.0785V13.049C7.54376 13.0054 7.54166 12.9716 7.53745 12.9477C7.53464 12.9238 7.52478 12.8985 7.5079 12.8717C7.49664 12.8521 7.48467 12.838 7.47204 12.8296C7.46078 12.8211 7.4418 12.8113 7.41506 12.8H7.94464C7.91931 12.8113 7.90032 12.8218 7.88766 12.8317C7.87499 12.8401 7.86236 12.8542 7.84969 12.8739C7.83281 12.902 7.82225 12.9308 7.81804 12.9604C7.81383 12.9899 7.81173 13.0328 7.81173 13.0891V14.3022C7.82436 14.3064 7.86938 14.3135 7.94674 14.3233C8.02552 14.3331 8.10215 14.3381 8.17671 14.3381C8.2625 14.3381 8.33001 14.3289 8.37923 14.3107C8.41801 14.2954 8.45669 14.28 8.49527 14.2642C8.53467 14.2474 8.5825 14.2171 8.63874 14.1735ZM11.3535 14.5258H10.7838C10.8133 14.523 10.845 14.5034 10.8788 14.4668C10.89 14.4541 10.8957 14.4387 10.8957 14.4204C10.8957 14.4035 10.8907 14.3817 10.8809 14.355L10.691 13.8802H10.0391L9.88081 14.3107C9.86967 14.3411 9.86396 14.3732 9.86394 14.4056C9.86394 14.4394 9.87169 14.464 9.88716 14.4794C9.91387 14.5048 9.94131 14.5202 9.96945 14.5258H9.4652C9.4841 14.5172 9.50241 14.5073 9.52004 14.4963C9.53551 14.485 9.55099 14.4724 9.56646 14.4583C9.58894 14.4358 9.60812 14.4103 9.62341 14.3824C9.63327 14.3641 9.64664 14.3345 9.66352 14.2938L10.1888 12.9836C10.1945 12.9695 10.1987 12.9576 10.2015 12.9477C10.2043 12.9364 10.2057 12.9245 10.2057 12.9118C10.2057 12.902 10.2036 12.8894 10.1994 12.8739C10.1867 12.8331 10.1572 12.8085 10.1108 12.8H10.537L11.1108 14.2157C11.1207 14.2438 11.1319 14.2727 11.1446 14.3022C11.1573 14.3303 11.1741 14.3592 11.1952 14.3887C11.2159 14.4162 11.2392 14.4417 11.2648 14.4647C11.2888 14.4858 11.3183 14.5062 11.3535 14.5258ZM10.6298 13.6946L10.3724 13.0405L10.1108 13.6946H10.6298ZM13.8297 14.5258C13.8255 14.5273 13.8023 14.5287 13.7601 14.5301C13.7193 14.5315 13.6701 14.5322 13.6124 14.5322H13.5808C13.4936 14.5322 13.4303 14.528 13.3909 14.5195C13.3529 14.5097 13.3051 14.4766 13.2474 14.4204C13.201 14.3754 13.1454 14.3114 13.0807 14.2284C13.0234 14.1541 12.9665 14.0795 12.9098 14.0047C12.8705 13.9555 12.8191 13.8809 12.7558 13.7811C12.708 13.7051 12.6771 13.6552 12.663 13.6313C12.6883 13.6313 12.7207 13.6271 12.76 13.6186C12.8004 13.6085 12.8399 13.5951 12.8782 13.5785C12.9485 13.5476 13.0034 13.5089 13.0428 13.4625C13.092 13.4048 13.1166 13.3373 13.1166 13.26C13.1166 13.2515 13.1159 13.2417 13.1145 13.2304C13.1131 13.2178 13.1124 13.2079 13.1124 13.2009C13.1011 13.1305 13.0646 13.0743 13.0027 13.0321C12.9408 12.9885 12.8641 12.9667 12.7727 12.9667C12.7347 12.9667 12.6918 12.9723 12.644 12.9836L12.6039 12.9941V14.2874C12.6039 14.3254 12.6046 14.355 12.606 14.3761C12.6088 14.3957 12.6159 14.4168 12.6271 14.4394C12.6384 14.4618 12.6496 14.4787 12.6609 14.49C12.6721 14.4998 12.6897 14.5118 12.7136 14.5258H12.2115C12.2354 14.5146 12.2544 14.5034 12.2685 14.4921C12.2839 14.4808 12.2966 14.464 12.3064 14.4415C12.3173 14.4188 12.3244 14.3946 12.3275 14.3697C12.3318 14.3444 12.3339 14.3163 12.3339 14.2853V13.0616C12.3339 13.0096 12.3304 12.9716 12.3233 12.9477C12.3176 12.9223 12.3077 12.898 12.2938 12.876C12.2741 12.8436 12.2446 12.8183 12.2052 12.8H12.8634C13.0097 12.8 13.1307 12.8345 13.2263 12.9034C13.3346 12.9808 13.3888 13.0905 13.3888 13.2325C13.3888 13.324 13.3508 13.4147 13.2748 13.5047C13.1989 13.5933 13.1053 13.6524 12.9943 13.6819L12.9689 13.6883L13.3909 14.222C13.419 14.2558 13.457 14.2938 13.5048 14.336C13.5442 14.3697 13.5808 14.3971 13.6145 14.4182C13.6483 14.438 13.6841 14.4583 13.7221 14.4794C13.7531 14.4963 13.7889 14.5118 13.8297 14.5258ZM15.2603 14.5258H14.7328C14.7511 14.516 14.7652 14.5083 14.7751 14.5027C14.7976 14.4886 14.8137 14.471 14.8236 14.4499C14.8348 14.4274 14.8433 14.4028 14.8489 14.3761C14.8559 14.3479 14.8594 14.317 14.8594 14.2832V13.0637V13.0363C14.8594 12.9969 14.8573 12.9667 14.8531 12.9456C14.8489 12.9245 14.8377 12.8992 14.8193 12.8696C14.8011 12.8401 14.7723 12.8169 14.7328 12.8H15.2582C15.2357 12.8099 15.2174 12.8204 15.2033 12.8317C15.1882 12.8441 15.1754 12.8591 15.1654 12.876C15.1555 12.8943 15.1471 12.9238 15.14 12.9646C15.133 13.004 15.1295 13.0398 15.1295 13.0722V14.2895C15.1295 14.3233 15.1316 14.3514 15.1358 14.374C15.14 14.395 15.1499 14.4211 15.1654 14.452C15.1752 14.4703 15.1872 14.485 15.2012 14.4963C15.2167 14.5062 15.2364 14.516 15.2603 14.5258ZM17.4088 14.0258C17.4088 14.196 17.3322 14.3317 17.1788 14.433C17.0396 14.5244 16.8715 14.5702 16.6746 14.5702C16.6184 14.5702 16.5677 14.5681 16.5227 14.5638C16.4764 14.5591 16.4305 14.5506 16.3856 14.5385L16.2273 14.4984L16.1577 14.1672L16.1936 14.1925C16.3694 14.3163 16.5382 14.3782 16.6999 14.3782C16.8209 14.3782 16.9179 14.355 16.9911 14.3085C17.0656 14.2607 17.1029 14.2009 17.1029 14.1292C17.1029 14.0392 17.0692 13.9661 17.0017 13.9098C16.9355 13.8521 16.8012 13.7797 16.5987 13.6925C16.4524 13.6292 16.3469 13.5532 16.2822 13.4646C16.2301 13.3929 16.2041 13.312 16.2041 13.222C16.2041 13.0616 16.2674 12.9421 16.394 12.8633C16.5051 12.7944 16.6585 12.76 16.854 12.76C16.9271 12.76 16.9925 12.7642 17.0502 12.7726C17.1078 12.7796 17.1683 12.793 17.2316 12.8127L17.259 12.8211V13.1165L17.2274 13.087C17.1796 13.0434 17.1184 13.0075 17.0438 12.9794C16.9725 12.9516 16.8967 12.9372 16.8202 12.9371C16.7344 12.9371 16.6606 12.9576 16.5987 12.9983C16.5368 13.0377 16.5058 13.0912 16.5058 13.1587C16.5058 13.2487 16.5452 13.3247 16.624 13.3865C16.6803 13.4316 16.7843 13.4871 16.9363 13.5532C17.0895 13.6179 17.2042 13.6861 17.2801 13.7579C17.3659 13.8395 17.4088 13.9288 17.4088 14.0258ZM6.82418 16.6875C6.82418 16.8296 6.76229 16.9533 6.6385 17.0588C6.50629 17.1714 6.34032 17.2276 6.1406 17.2276H5.4718C5.49288 17.2191 5.50906 17.2107 5.52032 17.2023C5.53299 17.1938 5.54492 17.1819 5.55618 17.1664C5.57306 17.1425 5.58432 17.1186 5.58994 17.0947C5.59555 17.0708 5.59839 17.042 5.59839 17.0082V15.7782V15.7486V15.7233C5.59839 15.6882 5.59555 15.6593 5.58994 15.6368C5.5861 15.6138 5.57668 15.592 5.5625 15.5735C5.54987 15.5538 5.5358 15.539 5.52032 15.5292C5.50232 15.5181 5.48323 15.5089 5.46334 15.5018H6.13639C6.28688 15.5018 6.41138 15.5362 6.50983 15.6051C6.60829 15.6741 6.65752 15.7585 6.65752 15.8583C6.65752 15.9653 6.63639 16.044 6.59422 16.0946C6.57309 16.12 6.52176 16.1558 6.44018 16.2022L6.41067 16.2191L6.44229 16.2318C6.57169 16.2838 6.66383 16.338 6.71867 16.3942C6.78902 16.4674 6.82418 16.5651 6.82418 16.6875ZM6.36846 15.8984C6.35439 15.8098 6.31573 15.7451 6.25243 15.7043C6.2032 15.672 6.14131 15.6558 6.06674 15.6558C6.01331 15.6558 5.97113 15.6628 5.94018 15.6769L5.87053 15.7064V16.1938L5.97394 16.1959C6.07099 16.1959 6.15748 16.1762 6.23345 16.1368C6.32625 16.089 6.37267 16.0229 6.37267 15.9385C6.37267 15.9315 6.37127 15.9181 6.36846 15.8984ZM6.52881 16.698C6.52881 16.5855 6.48239 16.4983 6.38955 16.4364C6.30797 16.3816 6.20811 16.3541 6.08997 16.3541C6.05902 16.3541 6.02738 16.3563 5.99502 16.3605L5.87264 16.3795V17.004L5.91485 17.0229C5.98236 17.0539 6.05762 17.0694 6.1406 17.0694C6.24892 17.0694 6.33822 17.0405 6.40853 16.9829C6.48871 16.9168 6.52881 16.8218 6.52881 16.698ZM9.54159 17.2276H8.97194C9.00148 17.2248 9.03313 17.2051 9.06688 17.1685C9.07815 17.1559 9.08376 17.1404 9.08376 17.1221C9.08376 17.1052 9.07885 17.0834 9.06899 17.0567L8.87913 16.582H8.2272L8.06895 17.0124C8.05779 17.0428 8.05208 17.075 8.05208 17.1074C8.05208 17.1411 8.05983 17.1657 8.07527 17.1812C8.10201 17.2065 8.12945 17.222 8.15759 17.2276H7.65334C7.67224 17.2189 7.69055 17.2091 7.70818 17.1981C7.72366 17.1868 7.73913 17.1742 7.7546 17.1601C7.77708 17.1376 7.79626 17.112 7.81155 17.0841C7.82141 17.0658 7.83478 17.0363 7.85166 16.9955L8.37699 15.6853C8.3826 15.6713 8.38685 15.6593 8.38966 15.6495C8.39246 15.6382 8.39387 15.6263 8.39387 15.6136C8.39387 15.6037 8.39176 15.5911 8.38755 15.5756C8.37488 15.5348 8.34534 15.5102 8.29892 15.5018H8.72509L9.29899 16.9175C9.30881 16.9456 9.32008 16.9744 9.33274 17.004C9.34538 17.0321 9.36225 17.0609 9.38338 17.0905C9.40404 17.118 9.42736 17.1434 9.45299 17.1664C9.47688 17.1875 9.50643 17.2079 9.54159 17.2276ZM8.81794 16.3963L8.56053 15.7423L8.29892 16.3963H8.81794ZM12.1592 15.5018C12.103 15.5243 12.0621 15.5595 12.0368 15.6073C12.0262 15.626 12.0177 15.6458 12.0115 15.6663C12.0059 15.6874 12.0031 15.7135 12.0031 15.7444V15.7824L12.0052 17.3141C11.9644 17.3015 11.9292 17.2874 11.8997 17.2719C11.8702 17.2578 11.8371 17.2368 11.8005 17.2086C11.7764 17.1916 11.7539 17.1725 11.733 17.1516C11.7232 17.1418 11.693 17.1045 11.6423 17.0398L10.7182 15.8731L10.7203 16.9512V16.9787C10.7203 17.0124 10.7238 17.0434 10.7309 17.0715C10.7393 17.0996 10.7576 17.1327 10.7857 17.1707C10.7928 17.1791 10.8068 17.1903 10.8279 17.2044C10.849 17.217 10.8645 17.2248 10.8744 17.2276H10.3701C10.3901 17.2197 10.4091 17.2098 10.4271 17.1981C10.4524 17.1812 10.4721 17.1615 10.4861 17.139C10.5018 17.1146 10.5125 17.0874 10.5178 17.0588C10.5248 17.0279 10.5283 17.0011 10.5283 16.9787V15.7676C10.5283 15.7338 10.5262 15.7036 10.522 15.6769C10.5192 15.6502 10.5114 15.627 10.4988 15.6073C10.4791 15.5791 10.4608 15.5581 10.4439 15.544C10.4285 15.5285 10.4053 15.5144 10.3743 15.5018H10.7942C10.797 15.5229 10.7998 15.5362 10.8026 15.5419C10.8111 15.5573 10.8167 15.5672 10.8195 15.5714C10.8293 15.5869 10.8413 15.6044 10.8553 15.6242L11.8069 16.8246V15.7782C11.8069 15.7331 11.8041 15.6973 11.7984 15.6705C11.7942 15.6438 11.7823 15.615 11.7626 15.5841C11.7519 15.5665 11.7384 15.5508 11.7225 15.5376C11.707 15.525 11.6873 15.513 11.6634 15.5018H12.1592ZM13.5097 17.2276H12.9885C13.011 17.2149 13.0286 17.203 13.0413 17.1917C13.0553 17.1805 13.0666 17.165 13.075 17.1453C13.0848 17.1256 13.0926 17.101 13.0982 17.0715C13.1053 17.042 13.1088 17.0096 13.1088 16.9744V15.7634V15.736C13.1088 15.6966 13.1067 15.6663 13.1025 15.6453C13.0982 15.6242 13.0877 15.6002 13.0708 15.5735C13.0596 15.5552 13.0476 15.5411 13.0349 15.5313C13.0237 15.5215 13.0068 15.5116 12.9843 15.5018H13.5097C13.4871 15.5102 13.4688 15.5201 13.4548 15.5313C13.4407 15.5411 13.4274 15.5559 13.4147 15.5756C13.3978 15.6009 13.3873 15.6249 13.3831 15.6474C13.3803 15.6698 13.3788 15.7022 13.3788 15.7444V16.9533C13.3788 16.9983 13.3803 17.0349 13.3831 17.063C13.3873 17.0898 13.3978 17.12 13.4147 17.1537C13.4245 17.1707 13.4372 17.1854 13.4527 17.1981C13.4706 17.2099 13.4897 17.2198 13.5097 17.2276ZM14.5456 17.2276H14.4949C14.4766 17.2276 14.4534 17.2283 14.4253 17.2297C14.3564 17.2297 14.2924 17.2276 14.2333 17.2234C14.1742 17.2177 14.1327 17.2086 14.1088 17.196C14.0737 17.1791 14.054 17.1692 14.0498 17.1664C14.023 17.1509 13.9935 17.1207 13.9611 17.0757L13.4105 16.3351L13.862 15.7402C13.8704 15.7275 13.8788 15.71 13.8873 15.6874C13.8957 15.6649 13.9 15.6438 13.9 15.6242C13.9 15.603 13.8964 15.5862 13.8894 15.5735C13.8739 15.5383 13.8458 15.5144 13.805 15.5018H14.3029L13.689 16.2803L14.2291 16.9913C14.246 17.0138 14.2628 17.0342 14.2797 17.0525C14.3012 17.072 14.3238 17.0903 14.3472 17.1074C14.3965 17.1439 14.4316 17.1685 14.4527 17.1812C14.4738 17.1938 14.5048 17.2093 14.5456 17.2276Z" fill="white"/>
<path d="M10.5091 2.80664L7.19336 6.22769H8.82494L12.1758 2.80664H10.5091ZM10.7021 4.77155L7.38634 8.19261H9.01792L12.3688 4.77155H10.7021ZM11.1232 6.49085L7.80739 9.9119H9.43897L12.7899 6.49085H11.1232Z" fill="#F2A809"/>
</svg>
