<svg width="54" height="48" viewBox="0 0 54 48" fill="none" xmlns="http://www.w3.org/2000/svg">
<path opacity="0.4" d="M45.6666 19.4132V38.4799C45.5866 46.0799 43.5066 47.9999 35.5866 47.9999H10.4133C2.35992 47.9999 0.333252 45.9999 0.333252 38.0532V19.4132C0.333252 12.2132 2.01325 9.89322 8.33325 9.51989C8.97325 9.49322 9.66659 9.46655 10.4133 9.46655H35.5866C43.6399 9.46655 45.6666 11.4666 45.6666 19.4132Z" fill="#F1592D"/>
<path d="M53.6666 9.94667V28.5867C53.6666 35.7867 51.9866 38.1067 45.6666 38.48V19.4133C45.6666 11.4667 43.6399 9.46667 35.5866 9.46667H10.4133C9.66659 9.46667 8.97325 9.49333 8.33325 9.52C8.41325 1.92 10.4933 0 18.4133 0H43.5866C51.6399 0 53.6666 2 53.6666 9.94667Z" fill="#F1592D"/>
<path d="M13.5598 41.4934H8.97314C7.87981 41.4934 6.97314 40.5867 6.97314 39.4934C6.97314 38.4001 7.87981 37.4934 8.97314 37.4934H13.5598C14.0902 37.4934 14.599 37.7041 14.974 38.0792C15.3491 38.4543 15.5598 38.963 15.5598 39.4934C15.5598 40.0238 15.3491 40.5326 14.974 40.9076C14.599 41.2827 14.0902 41.4934 13.5598 41.4934Z" fill="#F1592D"/>
<path d="M28.4665 41.4934H19.2932C18.1999 41.4934 17.2932 40.5867 17.2932 39.4934C17.2932 38.4001 18.1999 37.4934 19.2932 37.4934H28.4665C28.997 37.4934 29.5057 37.7041 29.8808 38.0792C30.2558 38.4543 30.4665 38.963 30.4665 39.4934C30.4665 40.0238 30.2558 40.5326 29.8808 40.9076C29.5057 41.2827 28.997 41.4934 28.4665 41.4934Z" fill="#F1592D"/>
<path d="M45.6666 23.6267H0.333252V27.6267H45.6666V23.6267Z" fill="#F1592D"/>
</svg>
