<svg width="64" height="56" viewBox="0 0 64 56" fill="none" xmlns="http://www.w3.org/2000/svg">
<path d="M58.6663 45.6667V53.6667H5.33301V45.6667C5.33301 44.2 6.53301 43 7.99967 43H55.9997C57.4663 43 58.6663 44.2 58.6663 45.6667Z" fill="#F1592D" stroke="#F1592D" stroke-width="1.5" stroke-miterlimit="10" stroke-linecap="round" stroke-linejoin="round"/>
<path opacity="0.6" d="M21.3332 24.3333H10.6665V42.9999H21.3332V24.3333Z" fill="#F1592D"/>
<path opacity="0.4" d="M31.9997 24.3333H21.333V42.9999H31.9997V24.3333Z" fill="#F1592D"/>
<path opacity="0.6" d="M42.6667 24.3333H32V42.9999H42.6667V24.3333Z" fill="#F1592D"/>
<path opacity="0.4" d="M53.3332 24.3333H42.6665V42.9999H53.3332V24.3333Z" fill="#F1592D"/>
<path d="M61.3332 55.6665H2.6665C1.57317 55.6665 0.666504 54.7598 0.666504 53.6665C0.666504 52.5732 1.57317 51.6665 2.6665 51.6665H61.3332C62.4265 51.6665 63.3332 52.5732 63.3332 53.6665C63.3332 54.7598 62.4265 55.6665 61.3332 55.6665Z" fill="#F1592D"/>
<path d="M56.9863 10.3332L32.9863 0.733242C32.453 0.519909 31.5463 0.519909 31.013 0.733242L7.01301 10.3332C6.07967 10.7066 5.33301 11.7999 5.33301 12.8132V21.6666C5.33301 23.1332 6.53301 24.3332 7.99967 24.3332H55.9997C57.4663 24.3332 58.6663 23.1332 58.6663 21.6666V12.8132C58.6663 11.7999 57.9197 10.7066 56.9863 10.3332ZM31.9997 17.6666C29.7863 17.6666 27.9997 15.8799 27.9997 13.6666C27.9997 11.4532 29.7863 9.66657 31.9997 9.66657C34.213 9.66657 35.9997 11.4532 35.9997 13.6666C35.9997 15.8799 34.213 17.6666 31.9997 17.6666Z" fill="#F1592D"/>
</svg>
