<svg width="16" height="16" viewBox="0 0 16 16" fill="none" xmlns="http://www.w3.org/2000/svg">
<path d="M11.45 0.466214L3.92501 2.96621C-1.13333 4.65788 -1.13333 7.41621 3.92501 9.09955L6.15834 9.84121L6.90001 12.0745C8.58334 17.1329 11.35 17.1329 13.0333 12.0745L15.5417 4.55788C16.6583 1.18288 14.825 -0.658786 11.45 0.466214ZM11.7167 4.94955L8.55001 8.13288C8.42501 8.25788 8.26667 8.31621 8.10834 8.31621C7.95001 8.31621 7.79167 8.25788 7.66667 8.13288C7.55044 8.01526 7.48525 7.85657 7.48525 7.69121C7.48525 7.52585 7.55044 7.36716 7.66667 7.24955L10.8333 4.06621C11.075 3.82455 11.475 3.82455 11.7167 4.06621C11.9583 4.30788 11.9583 4.70788 11.7167 4.94955Z" fill="#F1592D"/>
</svg>
