<svg width="165" height="142" viewBox="0 0 165 142" fill="none" xmlns="http://www.w3.org/2000/svg">
<path d="M85.3232 123.613C119.114 123.613 146.509 96.218 146.509 62.307C146.509 28.395 118.993 1 85.3232 1C51.5322 1 24.1372 28.395 24.1372 62.307C24.1372 96.218 51.5322 123.613 85.3232 123.613Z" fill="#F1F3F9" stroke="#D6DCE8" stroke-width="2" stroke-miterlimit="10"/>
<path d="M154.276 42.8818C154.932 42.8911 155.583 42.7701 156.191 42.5256C156.8 42.2812 157.353 41.9182 157.82 41.4579C158.287 40.9975 158.658 40.449 158.911 39.8441C159.164 39.2392 159.294 38.59 159.294 37.9343C159.294 37.2786 159.164 36.6295 158.911 36.0246C158.658 35.4197 158.287 34.8711 157.82 34.4108C157.353 33.9504 156.8 33.5875 156.191 33.343C155.583 33.0986 154.932 32.9775 154.276 32.9868C152.976 33.0053 151.736 33.5347 150.823 34.4605C149.91 35.3863 149.398 36.6342 149.398 37.9343C149.398 39.2344 149.91 40.4823 150.823 41.4081C151.736 42.334 152.976 42.8633 154.276 42.8818Z" fill="#F1F3F9"/>
<path d="M161.516 23.5739C161.965 23.5816 162.41 23.4999 162.827 23.3336C163.244 23.1673 163.623 22.9197 163.943 22.6052C164.263 22.2907 164.517 21.9156 164.691 21.5019C164.864 21.0882 164.953 20.644 164.953 20.1954C164.953 19.7468 164.864 19.3026 164.691 18.8889C164.517 18.4752 164.263 18.1001 163.943 17.7856C163.623 17.4711 163.244 17.2235 162.827 17.0572C162.41 16.8909 161.965 16.8092 161.516 16.8169C160.63 16.8321 159.786 17.1948 159.165 17.8267C158.543 18.4587 158.195 19.3093 158.195 20.1954C158.195 21.0815 158.543 21.9321 159.165 22.5641C159.786 23.196 160.63 23.5587 161.516 23.5739Z" fill="#F1F3F9"/>
<path d="M26.912 22.1208C27.3607 22.1285 27.8065 22.0468 28.2233 21.8805C28.64 21.7141 29.0195 21.4664 29.3396 21.1518C29.6596 20.8372 29.9138 20.4621 30.0873 20.0482C30.2608 19.6344 30.3502 19.1901 30.3502 18.7413C30.3502 18.2926 30.2608 17.8483 30.0873 17.4344C29.9138 17.0206 29.6596 16.6454 29.3396 16.3308C29.0195 16.0163 28.64 15.7686 28.2233 15.6022C27.8065 15.4358 27.3607 15.3541 26.912 15.3618C26.0301 15.3833 25.1915 15.7487 24.5753 16.3801C23.9592 17.0114 23.6143 17.8586 23.6143 18.7408C23.6143 19.623 23.9592 20.4703 24.5753 21.1016C25.1915 21.7329 26.0301 22.0984 26.912 22.1198V22.1208Z" fill="#F1F3F9"/>
<path d="M6.275 87.2883C7.93923 87.2883 9.5353 86.6272 10.7121 85.4504C11.8889 84.2736 12.55 82.6775 12.55 81.0133C12.55 79.349 11.8889 77.753 10.7121 76.5762C9.5353 75.3994 7.93923 74.7383 6.275 74.7383C4.61077 74.7383 3.0147 75.3994 1.8379 76.5762C0.661114 77.753 0 79.349 0 81.0133C0 82.6775 0.661114 84.2736 1.8379 85.4504C3.0147 86.6272 4.61077 87.2883 6.275 87.2883Z" fill="#F1F3F9"/>
<path d="M121.099 107.854H138.619C140.82 107.854 142.706 105.969 142.706 103.769V22.0733C142.706 19.8733 140.82 17.9883 138.619 17.9883H121.643" fill="#F1F3F9"/>
<path d="M121.099 107.854H138.619C140.82 107.854 142.706 105.969 142.706 103.769V22.0733C142.706 19.8733 140.82 17.9883 138.619 17.9883H121.643" stroke="#D6DCE8" stroke-width="2" stroke-miterlimit="10"/>
<path d="M51.5361 107.854H34.5601C32.3591 107.854 30.4731 105.969 30.4731 103.769V22.0733C30.4731 19.8733 32.3591 17.9883 34.5601 17.9883H51.1861" fill="#F1F3F9"/>
<path d="M51.5361 107.854H34.5601C32.3591 107.854 30.4731 105.969 30.4731 103.769V22.0733C30.4731 19.8733 32.3591 17.9883 34.5601 17.9883H51.1861" stroke="#D6DCE8" stroke-width="2" stroke-miterlimit="10"/>
<path d="M42.2832 34.3262H50.7712" stroke="#D6DCE8" stroke-width="2" stroke-miterlimit="10" stroke-linecap="round"/>
<path d="M42.2832 45.3242H50.7712" stroke="#D6DCE8" stroke-width="2" stroke-miterlimit="10" stroke-linecap="round"/>
<path d="M42.2832 56.6367H50.7712" stroke="#D6DCE8" stroke-width="2" stroke-miterlimit="10" stroke-linecap="round"/>
<path d="M42.2832 67.9473H50.7712" stroke="#D6DCE8" stroke-width="2" stroke-miterlimit="10" stroke-linecap="round"/>
<path d="M42.2832 89.9434H50.7712" stroke="#D6DCE8" stroke-width="2" stroke-miterlimit="10" stroke-linecap="round"/>
<path d="M129.816 34.3262H121.643" stroke="#D6DCE8" stroke-width="2" stroke-miterlimit="10"/>
<path d="M129.816 45.3242H121.643" stroke="#D6DCE8" stroke-width="2" stroke-miterlimit="10" stroke-linecap="round"/>
<path d="M129.816 56.6367H121.643" stroke="#D6DCE8" stroke-width="2" stroke-miterlimit="10" stroke-linecap="round"/>
<path d="M129.816 67.9473H121.643" stroke="#D6DCE8" stroke-width="2" stroke-miterlimit="10" stroke-linecap="round"/>
<path d="M129.816 89.9434H121.643" stroke="#D6DCE8" stroke-width="2" stroke-miterlimit="10" stroke-linecap="round"/>
<path d="M117.556 114.767H55.3092C53.1082 114.767 51.2222 112.881 51.2222 110.682V15.7881C51.2222 13.5881 53.1082 11.7031 55.3092 11.7031H117.556C119.756 11.7031 121.643 13.5891 121.643 15.7881V110.682C121.643 112.881 119.756 114.767 117.556 114.767Z" fill="white" stroke="#C5CCDA" stroke-width="2" stroke-miterlimit="10"/>
<path d="M110.01 42.4474H66.6262C65.6832 42.4474 65.0542 41.8774 65.0542 41.0234V37.3224C65.0542 36.4674 65.6832 35.8984 66.6262 35.8984H110.01C110.954 35.8984 111.582 36.4684 111.582 37.3224V41.0234C111.582 41.5934 110.954 42.4474 110.01 42.4474Z" fill="#F1F3F9" stroke="#D6DCE8" stroke-width="2" stroke-miterlimit="10"/>
<path d="M110.01 59.4142H66.6262C65.6832 59.4142 65.0542 58.8442 65.0542 57.9902V54.2882C65.0542 53.4342 65.6832 52.8652 66.6262 52.8652H110.01C110.954 52.8652 111.582 53.4352 111.582 54.2882V57.9902C111.582 58.8442 110.954 59.4142 110.01 59.4142Z" fill="#F1F3F9" stroke="#D6DCE8" stroke-width="2" stroke-miterlimit="10"/>
<path d="M110.01 76.6955H66.6262C65.6832 76.6955 65.0542 76.1265 65.0542 75.2725V71.5695C65.0542 70.7155 65.6832 70.1465 66.6262 70.1465H110.01C110.954 70.1465 111.582 70.7165 111.582 71.5695V75.2715C111.582 76.1255 110.954 76.6945 110.01 76.6945V76.6955Z" fill="#F1F3F9" stroke="#D6DCE8" stroke-width="2" stroke-miterlimit="10"/>
<path d="M110.011 94.2931H92.7199C91.7769 94.2931 91.1479 93.7231 91.1479 92.8691V89.1671C91.1479 88.3131 91.7769 87.7441 92.7199 87.7441H110.011C110.954 87.7441 111.583 88.3141 111.583 89.1671V92.8691C111.583 93.7231 110.954 94.2931 110.011 94.2931Z" fill="#F1F3F9" stroke="#D6DCE8" stroke-width="2" stroke-miterlimit="10"/>
<path d="M105.548 125.57C105.155 127.238 104.566 129.004 103.879 130.476C102.015 134.107 99.0708 136.953 95.4398 138.817C91.7118 140.682 87.2958 141.466 82.8798 140.485C72.4788 138.326 65.8058 128.121 67.9648 117.72C70.1238 107.318 80.2308 100.547 90.6318 102.804C94.3618 103.589 97.5988 105.454 100.347 108.005C104.959 112.617 106.921 119.29 105.548 125.57Z" fill="#D6DCE8" stroke="#AAB2C5" stroke-width="2" stroke-miterlimit="10"/>
<path d="M92.8902 118.977H89.4742V115.561C89.4742 114.164 88.3772 112.893 86.8052 112.893C85.4092 112.893 84.1372 113.989 84.1372 115.561V118.977H80.7212C79.3252 118.977 78.0532 120.073 78.0532 121.645C78.0532 122.375 78.3132 123.055 78.8132 123.554C79.3122 124.053 79.9912 124.313 80.7212 124.313H84.1372V127.729C84.1372 129.125 85.2342 130.397 86.8052 130.397C88.2022 130.397 89.4732 129.3 89.4732 127.729V124.313H92.8892C94.2862 124.313 95.5572 123.216 95.5572 121.645C95.5572 120.073 94.2862 118.977 92.8892 118.977H92.8902Z" fill="white" stroke="#AAB2C5" stroke-width="2"/>
</svg>
