<svg width="16" height="14" viewBox="0 0 16 14" fill="none" xmlns="http://www.w3.org/2000/svg">
<path d="M8 9C8.53043 9 9.03914 8.78929 9.41421 8.41421C9.78929 8.03914 10 7.53043 10 7C10 6.46957 9.78929 5.96086 9.41421 5.58579C9.03914 5.21071 8.53043 5 8 5C7.46957 5 6.96086 5.21071 6.58579 5.58579C6.21071 5.96086 6 6.46957 6 7C6 7.53043 6.21071 8.03914 6.58579 8.41421C6.96086 8.78929 7.46957 9 8 9V9Z" stroke="#292D32" strokeMiterlimit="10" strokeLinecap="round" strokeLinejoin="round"/>
<path d="M1.33398 7.5863V6.41297C1.33398 5.71963 1.90065 5.1463 2.60065 5.1463C3.80732 5.1463 4.30065 4.29297 3.69398 3.2463C3.34732 2.6463 3.55398 1.8663 4.16065 1.51963L5.31398 0.859632C5.84065 0.546299 6.52065 0.732966 6.83398 1.25963L6.90732 1.3863C7.50732 2.43297 8.49398 2.43297 9.10065 1.3863L9.17398 1.25963C9.48732 0.732966 10.1673 0.546299 10.694 0.859632L11.8473 1.51963C12.454 1.8663 12.6607 2.6463 12.314 3.2463C11.7073 4.29297 12.2007 5.1463 13.4073 5.1463C14.1007 5.1463 14.674 5.71297 14.674 6.41297V7.5863C14.674 8.27963 14.1073 8.85297 13.4073 8.85297C12.2007 8.85297 11.7073 9.7063 12.314 10.753C12.6607 11.3596 12.454 12.133 11.8473 12.4796L10.694 13.1396C10.1673 13.453 9.48732 13.2663 9.17398 12.7396L9.10065 12.613C8.50065 11.5663 7.51398 11.5663 6.90732 12.613L6.83398 12.7396C6.52065 13.2663 5.84065 13.453 5.31398 13.1396L4.16065 12.4796C3.87005 12.3123 3.65771 12.0365 3.57021 11.7128C3.48272 11.3891 3.52724 11.0439 3.69398 10.753C4.30065 9.7063 3.80732 8.85297 2.60065 8.85297C1.90065 8.85297 1.33398 8.27963 1.33398 7.5863V7.5863Z" stroke="#292D32" strokeMiterlimit="10" strokeLinecap="round" strokeLinejoin="round"/>
</svg>
