<svg width="14" height="16" viewBox="0 0 14 16" fill="none" xmlns="http://www.w3.org/2000/svg">
<path d="M11 12.5732H10.4933C9.96 12.5732 9.45333 12.7798 9.08 13.1532L7.94 14.2798C7.42 14.7932 6.57333 14.7932 6.05333 14.2798L4.91333 13.1532C4.54 12.7798 4.02667 12.5732 3.5 12.5732H3C1.89333 12.5732 1 11.6865 1 10.5932V3.31984C1 2.22651 1.89333 1.33984 3 1.33984H11C12.1067 1.33984 13 2.22651 13 3.31984V10.5932C13 11.6798 12.1067 12.5732 11 12.5732Z" stroke="#292D32" strokeMiterlimit="10" strokeLinecap="round" strokeLinejoin="round"/>
<path d="M3.66602 6.10616C3.66602 5.48616 4.17268 4.97949 4.79268 4.97949C5.41268 4.97949 5.91935 5.48616 5.91935 6.10616C5.91935 7.35949 4.13935 7.49283 3.74602 8.68616C3.66602 8.93283 3.87268 9.17949 4.13268 9.17949H5.91935" stroke="#292D32" strokeLinecap="round" strokeLinejoin="round"/>
<path d="M9.69318 9.1734V5.36673C9.69354 5.2825 9.66639 5.20045 9.61585 5.13306C9.56531 5.06568 9.49414 5.01664 9.41318 4.9934C9.33166 4.97037 9.2449 4.97414 9.16568 5.00415C9.08647 5.03416 9.01898 5.08881 8.97318 5.16007C8.49318 5.9334 7.97318 6.8134 7.51984 7.58673C7.44651 7.7134 7.44651 7.88007 7.51984 8.00673C7.59318 8.1334 7.73318 8.2134 7.88651 8.2134H10.3332" stroke="#292D32" strokeLinecap="round" strokeLinejoin="round"/>
</svg>
