<svg width="52" height="51" viewBox="0 0 52 51" fill="none" xmlns="http://www.w3.org/2000/svg">
<rect x="1.67383" y="1" width="49" height="49" rx="3" fill="white" stroke="#CDD5E0" strokeWidth="2"/>
<circle cx="35.6738" cy="15" r="5" fill="#CDD5E0"/>
<path d="M14.4667 19.7071L2.46672 31.7071C2.27918 31.8946 2.17383 32.149 2.17383 32.4142V48C2.17383 48.5523 2.62154 49 3.17383 49H50.1738C50.7261 49 51.1738 48.5523 51.1738 48V39.4142C51.1738 39.149 51.0685 38.8946 50.8809 38.7071L36.8809 24.7071C36.4904 24.3166 35.8572 24.3166 35.4667 24.7071L28.8809 31.2929C28.4904 31.6834 27.8572 31.6834 27.4667 31.2929L15.8809 19.7071C15.4904 19.3166 14.8572 19.3166 14.4667 19.7071Z" fill="#CDD5E0"/>
</svg>
