<svg width="16" height="16" viewBox="0 0 16 16" fill="none" xmlns="http://www.w3.org/2000/svg">
<path d="M12 12.5734H11.4933C10.96 12.5734 10.4533 12.7801 10.08 13.1534L8.94 14.2801C8.42 14.7934 7.57333 14.7934 7.05333 14.2801L5.91333 13.1534C5.54 12.7801 5.02667 12.5734 4.5 12.5734H4C2.89333 12.5734 2 11.6868 2 10.5934V3.32009C2 2.22675 2.89333 1.34009 4 1.34009H12C13.1067 1.34009 14 2.22675 14 3.32009V10.5934C14 11.6801 13.1067 12.5734 12 12.5734Z" stroke="#292D32" stroke-miterlimit="10" stroke-linecap="round" stroke-linejoin="round"/>
<path d="M4.66669 6.10665C4.66669 5.48665 5.17335 4.97998 5.79335 4.97998C6.41335 4.97998 6.92002 5.48665 6.92002 6.10665C6.92002 7.35998 5.14002 7.49331 4.74669 8.68665C4.66669 8.93331 4.87335 9.17998 5.13335 9.17998H6.92002" stroke="#292D32" stroke-linecap="round" stroke-linejoin="round"/>
<path d="M10.6934 9.1734V5.36673C10.6937 5.2825 10.6666 5.20045 10.616 5.13306C10.5655 5.06568 10.4943 5.01664 10.4134 4.9934C10.3318 4.97037 10.2451 4.97414 10.1659 5.00415C10.0867 5.03416 10.0192 5.08881 9.97336 5.16007C9.49336 5.9334 8.97336 6.8134 8.52003 7.58673C8.44669 7.7134 8.44669 7.88007 8.52003 8.00673C8.59336 8.1334 8.73336 8.2134 8.88669 8.2134H11.3334" stroke="#292D32" stroke-linecap="round" stroke-linejoin="round"/>
</svg>
