<svg width="46" height="32" viewBox="0 0 46 32" fill="none" xmlns="http://www.w3.org/2000/svg">
<path opacity="0.4" fillRule="evenodd" clip-rule="evenodd" d="M30.9662 15.6224L40.5987 12.8706V25.3852C40.5959 26.415 39.8956 27.312 38.8972 27.5648L23.6821 31.3684C22.9662 31.5441 22.2184 31.5441 21.5025 31.3684L6.30426 27.5648C5.30232 27.3169 4.59886 26.4173 4.59994 25.3852V12.8706L14.2324 15.6266C14.5359 15.7167 14.851 15.7617 15.1676 15.7602C16.362 15.7568 17.4681 15.1305 18.0854 14.108L22.5993 6.61326L27.1203 14.108C27.7364 15.1274 28.84 15.7511 30.0311 15.7532C30.3476 15.7555 30.6626 15.7115 30.9662 15.6224Z" fill="#F1592D"/>
<path fillRule="evenodd" clip-rule="evenodd" d="M3.8428 0.63526L0.221769 7.86608C0.0683094 8.17126 0.0589794 8.52899 0.196319 8.84176C0.333669 9.15453 0.603369 9.38972 0.931909 9.48324L14.8465 13.4558C15.3462 13.5961 15.8781 13.3862 16.1473 12.9426L22.599 2.25242L5.00997 0.0123C4.5284 -0.04737 4.06126 0.20196 3.8428 0.63526ZM44.982 7.86608L41.3609 0.63526C41.1426 0.19803 40.6714 -0.05307 40.1867 0.00949L22.599 2.25242L29.0466 12.9468C29.3158 13.3905 29.8477 13.6004 30.3473 13.4601L44.262 9.48746C44.5909 9.39276 44.861 9.15743 44.9999 8.84461C45.1388 8.5318 45.1322 8.17357 44.9819 7.86608H44.982Z" fill="#F1592D"/>
</svg>
