<svg width="20" height="22" viewBox="0 0 20 22" fill="none" xmlns="http://www.w3.org/2000/svg">
<path fillRule="evenodd" clip-rule="evenodd" d="M6.25 4.5C5.84 4.5 5.5 4.16 5.5 3.75V0.75C5.5 0.34 5.84 0 6.25 0C6.66 0 7 0.34 7 0.75V3.75C7 4.16 6.66 4.5 6.25 4.5Z" fill="#F1592D"/>
<path fillRule="evenodd" clip-rule="evenodd" d="M14.25 4.5C13.84 4.5 13.5 4.16 13.5 3.75V0.75C13.5 0.34 13.84 0 14.25 0C14.66 0 15 0.34 15 0.75V3.75C15 4.16 14.66 4.5 14.25 4.5Z" fill="#F1592D"/>
<path fillRule="evenodd" clip-rule="evenodd" d="M6.75 13.2459C6.62 13.2459 6.49 13.2159 6.37 13.1661C6.24 13.1162 6.14 13.0464 6.04 12.9567C5.86 12.7672 5.75 12.5179 5.75 12.2486C5.75 12.119 5.78 11.9894 5.83 11.8697C5.88 11.75 5.95 11.6403 6.04 11.5406C6.14 11.4509 6.24 11.3811 6.37 11.3312C6.73 11.1816 7.18 11.2614 7.46 11.5406C7.64 11.7301 7.75 11.9894 7.75 12.2486C7.75 12.3085 7.74 12.3783 7.73 12.4481C7.72 12.5079 7.7 12.5678 7.67 12.6276C7.65 12.6874 7.62 12.7473 7.58 12.8071C7.55 12.8569 7.5 12.9068 7.46 12.9567C7.27 13.1362 7.01 13.2459 6.75 13.2459Z" fill="#F1592D"/>
<path fillRule="evenodd" clip-rule="evenodd" d="M10.25 13.2479C10.12 13.2479 9.99 13.2179 9.87 13.1679C9.74 13.118 9.64 13.048 9.54 12.9581C9.36 12.7682 9.25 12.5183 9.25 12.2484C9.25 12.1185 9.28 11.9886 9.33 11.8687C9.38 11.7487 9.45 11.6388 9.54 11.5388C9.64 11.4489 9.74 11.3789 9.87 11.329C10.23 11.169 10.68 11.259 10.96 11.5388C11.14 11.7287 11.25 11.9886 11.25 12.2484C11.25 12.3084 11.24 12.3784 11.23 12.4483C11.22 12.5083 11.2 12.5683 11.17 12.6282C11.15 12.6882 11.12 12.7482 11.08 12.8081C11.05 12.8581 11 12.9081 10.96 12.9581C10.77 13.138 10.51 13.2479 10.25 13.2479Z" fill="#F1592D"/>
<path fillRule="evenodd" clip-rule="evenodd" d="M13.75 13.2479C13.62 13.2479 13.49 13.2179 13.37 13.1679C13.24 13.118 13.14 13.048 13.04 12.9581L12.92 12.8081C12.8821 12.7524 12.8519 12.6919 12.83 12.6282C12.8011 12.5716 12.7809 12.511 12.77 12.4483C12.76 12.3784 12.75 12.3084 12.75 12.2484C12.75 11.9886 12.86 11.7287 13.04 11.5388C13.14 11.4489 13.24 11.3789 13.37 11.329C13.74 11.169 14.18 11.259 14.46 11.5388C14.64 11.7287 14.75 11.9886 14.75 12.2484C14.75 12.3084 14.74 12.3784 14.73 12.4483C14.72 12.5083 14.7 12.5683 14.67 12.6282C14.65 12.6882 14.62 12.7482 14.58 12.8081C14.55 12.8581 14.5 12.9081 14.46 12.9581C14.27 13.138 14.01 13.2479 13.75 13.2479Z" fill="#F1592D"/>
<path fillRule="evenodd" clip-rule="evenodd" d="M6.75 16.7502C6.62 16.7502 6.49 16.7202 6.37 16.6703C6.25 16.6204 6.14 16.5504 6.04 16.4606C5.86 16.2708 5.75 16.0111 5.75 15.7515C5.75 15.6216 5.78 15.4918 5.83 15.3719C5.88 15.2421 5.95 15.1322 6.04 15.0423C6.41 14.6728 7.09 14.6728 7.46 15.0423C7.64 15.2321 7.75 15.4918 7.75 15.7515C7.75 16.0111 7.64 16.2708 7.46 16.4606C7.27 16.6403 7.01 16.7502 6.75 16.7502Z" fill="#F1592D"/>
<path fillRule="evenodd" clip-rule="evenodd" d="M10.25 16.7502C9.99 16.7502 9.73 16.6403 9.54 16.4606C9.36 16.2708 9.25 16.0111 9.25 15.7515C9.25 15.6216 9.28 15.4918 9.33 15.3719C9.38 15.2421 9.45 15.1322 9.54 15.0423C9.91 14.6728 10.59 14.6728 10.96 15.0423C11.05 15.1322 11.12 15.2421 11.17 15.3719C11.22 15.4918 11.25 15.6216 11.25 15.7515C11.25 16.0111 11.14 16.2708 10.96 16.4606C10.77 16.6403 10.51 16.7502 10.25 16.7502Z" fill="#F1592D"/>
<path fillRule="evenodd" clip-rule="evenodd" d="M13.75 16.7499C13.49 16.7499 13.23 16.6399 13.04 16.4598C12.9475 16.3658 12.8759 16.2533 12.83 16.1296C12.7786 16.0094 12.7514 15.8802 12.75 15.7495C12.75 15.6194 12.78 15.4893 12.83 15.3693C12.88 15.2392 12.95 15.1292 13.04 15.0392C13.27 14.809 13.62 14.699 13.94 14.769C14.01 14.779 14.07 14.799 14.13 14.8291C14.19 14.8491 14.25 14.8791 14.31 14.9191C14.36 14.9491 14.41 14.9991 14.46 15.0392C14.64 15.2292 14.75 15.4893 14.75 15.7495C14.75 16.0096 14.64 16.2697 14.46 16.4598C14.27 16.6399 14.01 16.7499 13.75 16.7499Z" fill="#F1592D"/>
<path fillRule="evenodd" clip-rule="evenodd" d="M18.75 8.58984H1.75C1.34 8.58984 1 8.24984 1 7.83984C1 7.42984 1.34 7.08984 1.75 7.08984H18.75C19.16 7.08984 19.5 7.42984 19.5 7.83984C19.5 8.24984 19.16 8.58984 18.75 8.58984Z" fill="#F1592D"/>
<path fillRule="evenodd" clip-rule="evenodd" d="M6.25 3C3.39 3 2 4.39 2 7.25V15.75C2 18.61 3.39 20 6.25 20H14.25C17.11 20 18.5 18.61 18.5 15.75V7.25C18.5 4.39 17.11 3 14.25 3H6.25ZM14.25 21.5H6.25C2.6 21.5 0.5 19.4 0.5 15.75V7.25C0.5 3.6 2.6 1.5 6.25 1.5H14.25C17.9 1.5 20 3.6 20 7.25V15.75C20 19.4 17.9 21.5 14.25 21.5Z" fill="#F1592D"/>
</svg>
