<svg xmlns="http://www.w3.org/2000/svg" width="54" height="33.751" viewBox="0 0 54 33.751"><defs><style>.a,.b{fill:#f1592d;}.a{opacity:0.4;}</style></defs><g transform="translate(-662 -129.999)"><g transform="translate(661.988 66)"><path class="a" d="M57.269,128a4.219,4.219,0,0,1,3.918,2.652l1.752,4.379h-22.5l1.752-4.38A4.219,4.219,0,0,1,46.107,128Zm-21.05,22.5a5.609,5.609,0,0,1-4.181-1.863,2.8,2.8,0,0,0-.038.457v4.219a2.813,2.813,0,0,0,2.813,2.813h2.813a2.813,2.813,0,0,0,2.813-2.813V150.5Zm30.938,0H62.938v2.813a2.813,2.813,0,0,0,2.813,2.813h2.813a2.813,2.813,0,0,0,2.813-2.813v-4.219a2.8,2.8,0,0,0-.038-.457A5.609,5.609,0,0,1,67.157,150.5Z" transform="translate(-29.177 -58.375)"/><path class="b" d="M43.957,73.843H38.694l-1.463-3.656A9.794,9.794,0,0,0,28.092,64H16.93a9.8,9.8,0,0,0-9.141,6.188L6.328,73.843H1.065a1.055,1.055,0,0,0-1.022,1.31l.527,2.109a1.055,1.055,0,0,0,1.022.8H3.358a5.586,5.586,0,0,0-1.941,4.219V86.5a5.625,5.625,0,0,0,5.625,5.625H37.98A5.625,5.625,0,0,0,43.606,86.5V82.281a5.588,5.588,0,0,0-1.94-4.219H43.43a1.055,1.055,0,0,0,1.023-.8l.527-2.11a1.055,1.055,0,0,0-1.023-1.31ZM13.013,72.276a4.219,4.219,0,0,1,3.917-2.652H28.092a4.219,4.219,0,0,1,3.918,2.652l1.752,4.379h-22.5Zm-4.564,8.6c1.688,0,4.219,2.523,4.219,4.206s-2.531,1.4-4.219,1.4a2.8,2.8,0,1,1,0-5.608Zm23.907,4.206c0-1.682,2.531-4.206,4.219-4.206a2.8,2.8,0,1,1,0,5.608C34.887,86.482,32.355,86.764,32.355,85.081Z" transform="translate(0 0)"/></g><g transform="translate(696 99)"><path class="a" d="M63.54,89.117a3.513,3.513,0,0,1,1.451-1.281V81.662a3.513,3.513,0,0,1-1.63-1.6,8.86,8.86,0,0,0-1.1-.066,22.6,22.6,0,0,0-5.406.928,25.2,25.2,0,0,1-6.141,1.02,12.036,12.036,0,0,1-1.276-.066,3.513,3.513,0,0,1-1.451,1.281v6.174a3.513,3.513,0,0,1,1.63,1.6,8.858,8.858,0,0,0,1.1.066,22.584,22.584,0,0,0,5.406-.928,25.137,25.137,0,0,1,6.142-1.02A12.032,12.032,0,0,1,63.54,89.117ZM56.49,88.5a3.05,3.05,0,1,1,2.5-3A2.785,2.785,0,0,1,56.49,88.5Z" transform="translate(-46.49 -46.5)"/><path class="b" d="M19.411,32.7a9.254,9.254,0,0,0-3.638-.7c-3.85,0-7.7,1.948-11.547,1.948a9.481,9.481,0,0,1-2.9-.429,1.068,1.068,0,0,0-.323-.051A.994.994,0,0,0,0,34.463v9.914a.994.994,0,0,0,.589.921,9.249,9.249,0,0,0,3.638.7c3.849,0,7.7-1.948,11.547-1.948a9.482,9.482,0,0,1,2.9.429,1.069,1.069,0,0,0,.323.051A.994.994,0,0,0,20,43.537V33.623A.994.994,0,0,0,19.411,32.7ZM9.632,43.572a22.574,22.574,0,0,1-5.406.928,8.858,8.858,0,0,1-1.1-.066,3.513,3.513,0,0,0-1.63-1.6V36.663a3.513,3.513,0,0,0,1.451-1.281,12.036,12.036,0,0,0,1.276.066,25.123,25.123,0,0,0,6.141-1.02,22.6,22.6,0,0,1,5.4-.928,8.858,8.858,0,0,1,1.1.066,3.513,3.513,0,0,0,1.631,1.6v6.174a3.513,3.513,0,0,0-1.451,1.281,12.031,12.031,0,0,0-1.276-.066,25.1,25.1,0,0,0-6.141,1.019Z"/></g></g></svg>