<svg width="46" height="34" viewBox="0 0 46 34" fill="none" xmlns="http://www.w3.org/2000/svg">
<path opacity="0.4" fillRule="evenodd" clip-rule="evenodd" d="M38.0673 28.1256H33.8485V30.9382C33.8485 32.4915 35.1077 33.7507 36.661 33.7507H39.4736C41.0269 33.7507 42.2862 32.4915 42.2862 30.9382V26.7193C42.2861 26.5662 42.2735 26.4133 42.2484 26.2623C41.1831 27.4496 39.6626 28.1273 38.0673 28.1256ZM7.12902 28.1256C5.53378 28.1273 4.01328 27.4497 2.94796 26.2623C2.92287 26.4133 2.91023 26.5662 2.91016 26.7193V30.9382C2.91016 32.4915 4.16939 33.7507 5.72273 33.7507H8.5353C10.0886 33.7507 11.3479 32.4915 11.3479 30.9382V28.1256H7.12902ZM28.1794 5.625C29.9049 5.625 31.4562 6.67532 32.0969 8.2771L33.8485 12.6564H11.3479L13.0996 8.27673C13.7404 6.67501 15.2918 5.62484 17.017 5.625H28.1794Z" fill="#F1592D"/>
<path fillRule="evenodd" clip-rule="evenodd" d="M32.4412 21.0812C32.4412 19.3989 34.9725 16.8755 36.6601 16.8755C38.3476 16.8755 39.4727 17.997 39.4727 19.6793C39.4727 21.3616 38.3476 22.4831 36.6601 22.4831C34.9725 22.4831 32.4412 22.7643 32.4412 21.0812V21.0812ZM8.53435 16.8755C10.2219 16.8755 12.7532 19.3989 12.7532 21.0812C12.7532 22.7634 10.2219 22.4831 8.53435 22.4831C6.84681 22.4831 5.72177 21.358 5.72177 19.6793C5.72177 18.0005 6.8468 16.8755 8.53435 16.8755V16.8755ZM13.0986 8.27694C13.7394 6.67523 15.2909 5.62505 17.016 5.62521H28.1784C29.9039 5.62521 31.4553 6.67554 32.0959 8.2773L33.8475 12.6566H11.3469L13.0986 8.27694ZM44.0431 9.84407H38.7801L37.3175 6.18773C35.834 2.44164 32.2075 -0.01363 28.1784 6e-05H17.016C12.9865 -0.01337 9.35976 2.44168 7.87515 6.18773L6.41349 9.84407H1.15134C0.826736 9.84439 0.520376 9.99416 0.320736 10.2501C0.121096 10.506 0.0504262 10.8396 0.129146 11.1546L0.656506 13.264C0.773776 13.7332 1.1951 14.0624 1.6787 14.0629L3.44359 14.0629C2.21506 15.1209 1.50685 16.6605 1.50291 18.2818V22.5006C1.50291 25.6073 4.02137 28.1258 7.12806 28.1258H38.0664C41.1731 28.1258 43.6915 25.6073 43.6915 22.5006V18.2818C43.6874 16.6607 42.9796 15.1213 41.7517 14.0629H43.5157C43.9995 14.0629 44.4213 13.7336 44.5388 13.2641L45.0662 11.1546C45.1449 10.8395 45.0741 10.5057 44.8743 10.2497C44.6745 9.99376 44.3678 9.84411 44.0431 9.84406L44.0431 9.84407Z" fill="#F1592D"/>
</svg>
