<svg xmlns="http://www.w3.org/2000/svg" width="17" height="15.583" viewBox="0 0 17 15.583"><defs><style>.a{fill:#61748d;}</style></defs><g transform="translate(0 -1)"><path class="a" d="M13.458,1H3.542A3.546,3.546,0,0,0,0,4.542v8.5a3.546,3.546,0,0,0,3.542,3.542h9.917A3.546,3.546,0,0,0,17,13.042v-8.5A3.546,3.546,0,0,0,13.458,1ZM3.542,2.417h9.917a2.125,2.125,0,0,1,1.969,1.337L10,9.178A2.13,2.13,0,0,1,7,9.178L1.572,3.753A2.125,2.125,0,0,1,3.542,2.417Zm9.917,12.75H3.542a2.125,2.125,0,0,1-2.125-2.125V5.6L6,10.18a3.547,3.547,0,0,0,5.009,0L15.583,5.6v7.437A2.125,2.125,0,0,1,13.458,15.167Z"/></g></svg>