<svg width="16" height="16" viewBox="0 0 16 16" fill="none" xmlns="http://www.w3.org/2000/svg">
<path fillRule="evenodd" clip-rule="evenodd" d="M12.6667 14.6682H3.33341C2.22884 14.6682 1.33341 13.7728 1.33341 12.6682V6.6682H14.6667V12.6682C14.6667 13.7728 13.7713 14.6682 12.6667 14.6682ZM1.33341 4.6682C1.33341 3.56363 2.22884 2.6682 3.33341 2.6682H12.6667C13.7713 2.6682 14.6667 3.56363 14.6667 4.6682V5.33486H1.33341V4.6682ZM12.6667 1.33333H12V0.666667C12 0.29848 11.7015 0 11.3333 0C10.9651 0 10.6667 0.29848 10.6667 0.666667V1.33333H5.33333V0.666667C5.33333 0.29848 5.03485 0 4.66667 0C4.29848 0 4 0.29848 4 0.666667V1.33333H3.33333C1.4933 1.33554 0.00220667 2.82663 0 4.66667V12.6667C0.00220667 14.5067 1.4933 15.9978 3.33333 16H12.6667C14.5067 15.9978 15.9978 14.5067 16 12.6667V4.66667C15.9978 2.82663 14.5067 1.33554 12.6667 1.33333Z" fill="#F1592D"/>
<path fillRule="evenodd" clip-rule="evenodd" d="M7 10C7 9.44771 7.44771 9 8 9C8.55229 9 9 9.44771 9 10C9 10.5523 8.55229 11 8 11C7.44771 11 7 10.5523 7 10Z" fill="#F1592D"/>
<path fillRule="evenodd" clip-rule="evenodd" d="M3.66656 10C3.66656 9.44771 4.11428 9 4.66656 9C5.21885 9 5.66656 9.44771 5.66656 10C5.66656 10.5523 5.21885 11 4.66656 11C4.11428 11 3.66656 10.5523 3.66656 10Z" fill="#F1592D"/>
<path fillRule="evenodd" clip-rule="evenodd" d="M10.3334 10C10.3334 9.44771 10.7811 9 11.3334 9C11.8857 9 12.3334 9.44771 12.3334 10C12.3334 10.5523 11.8857 11 11.3334 11C10.7811 11 10.3334 10.5523 10.3334 10Z" fill="#F1592D"/>
</svg>
