<svg xmlns="http://www.w3.org/2000/svg" width="15.923" height="15.923" viewBox="0 0 15.923 15.923"><defs><style>.a{fill:#f1592d;}</style></defs><g transform="translate(0)"><path class="a" d="M15.243,5.768l-4.7-4.7a3.654,3.654,0,0,0-5.16,0l-4.7,4.7A2.307,2.307,0,0,0,0,7.41V14.3a1.63,1.63,0,0,0,1.629,1.627H14.294A1.63,1.63,0,0,0,15.923,14.3V7.41a2.307,2.307,0,0,0-.68-1.642Zm-1.31,8.165H10.616V11.822A2.533,2.533,0,0,0,8.082,9.289H7.841a2.533,2.533,0,0,0-2.533,2.533v2.111H1.99V7.41a.335.335,0,0,1,.1-.235l4.7-4.7a1.659,1.659,0,0,1,2.346,0l4.7,4.7a.335.335,0,0,1,.1.235Z" transform="translate(0 0)"/></g></svg>