<svg xmlns="http://www.w3.org/2000/svg" width="16.5" height="12.5" viewBox="0 0 16.5 12.5"><defs><style>.a{fill:#61748d;stroke:#61748d;strokeWidth:0.5px;}</style></defs><g transform="translate(0.25 -2.75)"><path class="a" d="M6.667,5.333H17.333a.667.667,0,0,0,0-1.333H6.667a.667.667,0,0,0,0,1.333Z" transform="translate(-2 -0.333)"/><path class="a" d="M17.333,11H6.667a.667.667,0,1,0,0,1.333H17.333a.667.667,0,0,0,0-1.333Z" transform="translate(-2 -2.667)"/><path class="a" d="M17.333,18H6.667a.667.667,0,1,0,0,1.333H17.333a.667.667,0,0,0,0-1.333Z" transform="translate(-2 -5)"/><circle class="a" cx="1.333" cy="1.333" r="1.333" transform="translate(0 3)"/><circle class="a" cx="1.333" cy="1.333" r="1.333" transform="translate(0 7.667)"/><circle class="a" cx="1.333" cy="1.333" r="1.333" transform="translate(0 12.333)"/></g></svg>