<svg width="20" height="20" viewBox="0 0 20 20" fill="none" xmlns="http://www.w3.org/2000/svg">
<path d="M0 0H20V20H0V0Z" fill="#8934AD"/>
<path d="M3.83013 13.2457C3.83013 13.3891 3.77385 13.5094 3.66132 13.6065C3.5488 13.7035 3.41729 13.752 3.2668 13.752C3.19929 13.752 3.13389 13.7408 3.07059 13.7183C3.10575 13.7183 3.13739 13.7141 3.16553 13.7056C3.17115 13.7042 3.2021 13.6923 3.25838 13.6697C3.33996 13.6388 3.40325 13.5973 3.44824 13.5453C3.50452 13.4806 3.53262 13.4025 3.53262 13.3111C3.53262 13.2802 3.52982 13.2513 3.5242 13.2246C3.51153 13.1458 3.47287 13.0868 3.40817 13.0474C3.34487 13.008 3.26469 12.9883 3.16764 12.9883C3.13389 12.9883 3.09803 12.9904 3.06003 12.9946L2.97989 13.0052V14.2499C2.97989 14.2908 2.98199 14.3266 2.9862 14.3576C2.99041 14.3871 3.00164 14.4145 3.01996 14.4398C3.03118 14.4567 3.04455 14.4729 3.06003 14.4884C3.07767 14.5029 3.09677 14.5157 3.11701 14.5263H2.59589C2.62403 14.5123 2.6409 14.5031 2.64652 14.4989C2.66055 14.4891 2.67325 14.4708 2.68448 14.4441C2.69715 14.4173 2.7056 14.3871 2.70982 14.3533C2.71403 14.3182 2.71613 14.283 2.71613 14.2478V13.0642V13.0368C2.71613 12.9988 2.71403 12.9693 2.70982 12.9482C2.70701 12.9257 2.69718 12.9018 2.68027 12.8765C2.67016 12.8609 2.65811 12.8468 2.64441 12.8343C2.63178 12.823 2.61417 12.8118 2.59167 12.8005H3.23939C3.39834 12.8005 3.53336 12.8378 3.64445 12.9123C3.76824 12.9953 3.83013 13.1064 3.83013 13.2457ZM6.57613 13.7098C6.57613 13.9377 6.49525 14.1353 6.3335 14.3027C6.15908 14.4827 5.93617 14.5728 5.66469 14.5728C5.36652 14.5728 5.12459 14.487 4.9389 14.3154C4.75325 14.1423 4.66041 13.9264 4.66041 13.6676C4.66041 13.4257 4.73989 13.2176 4.89883 13.0431C5.07185 12.8532 5.29617 12.7583 5.57185 12.7583C5.90522 12.7583 6.16192 12.8582 6.34195 13.0579C6.49806 13.2323 6.57613 13.4496 6.57613 13.7098ZM6.28287 13.674C6.28287 13.4742 6.23083 13.309 6.12673 13.1782C6.00578 13.0263 5.83346 12.9503 5.60985 12.9503C5.40869 12.9503 5.24764 13.0263 5.12669 13.1782C5.01697 13.316 4.96213 13.4848 4.96213 13.6845C4.96213 13.8885 5.02543 14.0579 5.15203 14.193C5.27999 14.3266 5.44245 14.3934 5.63936 14.3934C5.83066 14.3934 5.9882 14.3175 6.11199 14.1656C6.22588 14.0249 6.28287 13.861 6.28287 13.674ZM8.63862 14.174L8.50571 14.5263H7.40441C7.41985 14.5193 7.43603 14.5123 7.45294 14.5052C7.47664 14.4914 7.49572 14.4708 7.50778 14.4462C7.52191 14.4207 7.53121 14.3928 7.53522 14.3639C7.54083 14.3343 7.54364 14.302 7.54364 14.2668V13.079V13.0495C7.54364 13.0059 7.54153 12.9721 7.53732 12.9482C7.53452 12.9243 7.52466 12.899 7.50778 12.8722C7.49652 12.8525 7.48455 12.8385 7.47192 12.8301C7.46066 12.8216 7.44167 12.8118 7.41494 12.8005H7.94452C7.91918 12.8118 7.9002 12.8223 7.88753 12.8322C7.87487 12.8406 7.86224 12.8547 7.84957 12.8744C7.83269 12.9025 7.82213 12.9313 7.81792 12.9609C7.81371 12.9904 7.8116 13.0333 7.8116 13.0896V14.3027C7.82424 14.3069 7.86925 14.3139 7.94662 14.3238C8.02539 14.3336 8.10203 14.3385 8.17659 14.3385C8.26238 14.3385 8.32989 14.3294 8.37911 14.3111C8.41789 14.2959 8.45657 14.2804 8.49515 14.2647C8.53455 14.2478 8.58238 14.2176 8.63862 14.174ZM11.3534 14.5263H10.7837C10.8132 14.5235 10.8449 14.5038 10.8787 14.4672C10.8899 14.4546 10.8955 14.4391 10.8955 14.4209C10.8955 14.4039 10.8906 14.3822 10.8808 14.3555L10.6909 13.8807H10.0389L9.88069 14.3111C9.86955 14.3416 9.86383 14.3737 9.86381 14.4061C9.86381 14.4398 9.87157 14.4644 9.88704 14.4799C9.91374 14.5052 9.94118 14.5207 9.96932 14.5263H9.46508C9.48397 14.5177 9.50229 14.5078 9.51992 14.4968C9.53539 14.4855 9.55087 14.4729 9.56634 14.4588C9.58882 14.4363 9.608 14.4108 9.62329 14.3829C9.63315 14.3646 9.64652 14.335 9.66339 14.2943L10.1887 12.9841C10.1944 12.97 10.1986 12.9581 10.2014 12.9482C10.2042 12.9369 10.2056 12.925 10.2056 12.9123C10.2056 12.9025 10.2035 12.8898 10.1993 12.8744C10.1866 12.8336 10.1571 12.809 10.1107 12.8005H10.5369L11.1107 14.2162C11.1206 14.2443 11.1318 14.2731 11.1445 14.3027C11.1571 14.3308 11.174 14.3597 11.1951 14.3892C11.2158 14.4167 11.2391 14.4422 11.2647 14.4651C11.2887 14.4863 11.3182 14.5067 11.3534 14.5263ZM10.6297 13.6951L10.3723 13.041L10.1107 13.6951H10.6297ZM13.8296 14.5263C13.8254 14.5277 13.8022 14.5291 13.76 14.5305C13.7192 14.5319 13.67 14.5327 13.6123 14.5327H13.5807C13.4934 14.5327 13.4301 14.5284 13.3908 14.52C13.3528 14.5102 13.305 14.4771 13.2473 14.4209C13.2009 14.3758 13.1453 14.3118 13.0806 14.2289C13.0233 14.1546 12.9663 14.08 12.9097 14.0052C12.8703 13.956 12.819 13.8814 12.7557 13.7816C12.7079 13.7056 12.6769 13.6557 12.6629 13.6318C12.6882 13.6318 12.7206 13.6276 12.7599 13.6191C12.8003 13.6089 12.8398 13.5955 12.8781 13.579C12.9484 13.5481 13.0033 13.5094 13.0427 13.463C13.0919 13.4053 13.1165 13.3378 13.1165 13.2604C13.1165 13.252 13.1158 13.2422 13.1144 13.2309C13.113 13.2183 13.1123 13.2084 13.1123 13.2014C13.101 13.131 13.0644 13.0748 13.0026 13.0326C12.9407 12.989 12.864 12.9672 12.7726 12.9672C12.7346 12.9672 12.6917 12.9728 12.6439 12.9841L12.6038 12.9946V14.2879C12.6038 14.3259 12.6045 14.3555 12.6059 14.3765C12.6087 14.3962 12.6157 14.4173 12.627 14.4398C12.6383 14.4623 12.6495 14.4792 12.6608 14.4905C12.672 14.5003 12.6896 14.5123 12.7135 14.5263H12.2114C12.2353 14.5151 12.2543 14.5038 12.2683 14.4926C12.2838 14.4813 12.2965 14.4644 12.3063 14.4419C12.3172 14.4193 12.3243 14.3951 12.3274 14.3702C12.3316 14.3449 12.3337 14.3168 12.3337 14.2858V13.0621C12.3337 13.0101 12.3302 12.9721 12.3232 12.9482C12.3175 12.9228 12.3075 12.8985 12.2937 12.8765C12.274 12.8441 12.2444 12.8188 12.205 12.8005H12.8633C13.0096 12.8005 13.1306 12.835 13.2262 12.9039C13.3345 12.9812 13.3887 13.091 13.3887 13.233C13.3887 13.3244 13.3507 13.4152 13.2747 13.5052C13.1988 13.5938 13.1052 13.6529 12.9941 13.6824L12.9688 13.6888L13.3908 14.2225C13.4189 14.2563 13.4569 14.2943 13.5047 14.3364C13.5441 14.3702 13.5807 14.3976 13.6144 14.4187C13.6482 14.4384 13.684 14.4588 13.722 14.4799C13.7529 14.4968 13.7888 14.5123 13.8296 14.5263ZM15.2602 14.5263H14.7327C14.751 14.5165 14.7651 14.5088 14.7749 14.5031C14.7974 14.4891 14.8136 14.4715 14.8235 14.4504C14.8347 14.4279 14.8431 14.4032 14.8488 14.3765C14.8558 14.3484 14.8593 14.3175 14.8593 14.2837V13.0642V13.0368C14.8593 12.9974 14.8572 12.9672 14.853 12.9461C14.8488 12.925 14.8375 12.8997 14.8192 12.8701C14.8009 12.8406 14.7721 12.8174 14.7327 12.8005H15.2581C15.2356 12.8104 15.2173 12.8209 15.2032 12.8322C15.1881 12.8446 15.1753 12.8596 15.1653 12.8765C15.1554 12.8948 15.147 12.9243 15.1399 12.9651C15.1329 13.0045 15.1294 13.0403 15.1294 13.0727V14.29C15.1294 14.3238 15.1315 14.3519 15.1357 14.3744C15.1399 14.3955 15.1498 14.4216 15.1653 14.4525C15.1751 14.4708 15.187 14.4855 15.2011 14.4968C15.2166 14.5067 15.2363 14.5165 15.2602 14.5263ZM17.4087 14.0263C17.4087 14.1965 17.3321 14.3322 17.1787 14.4335C17.0395 14.5249 16.8714 14.5707 16.6745 14.5707C16.6182 14.5707 16.5676 14.5685 16.5226 14.5643C16.4763 14.5596 16.4304 14.5511 16.3855 14.539L16.2272 14.4989L16.1576 14.1677L16.1935 14.193C16.3693 14.3168 16.5381 14.3787 16.6998 14.3787C16.8208 14.3787 16.9178 14.3555 16.991 14.309C17.0655 14.2612 17.1028 14.2014 17.1028 14.1297C17.1028 14.0397 17.069 13.9665 17.0015 13.9103C16.9354 13.8526 16.8011 13.7802 16.5986 13.693C16.4523 13.6297 16.3468 13.5537 16.2821 13.4651C16.23 13.3934 16.204 13.3125 16.204 13.2225C16.204 13.0621 16.2673 12.9426 16.3939 12.8638C16.505 12.7949 16.6583 12.7604 16.8538 12.7604C16.927 12.7604 16.9924 12.7647 17.0501 12.7731C17.1077 12.7801 17.1682 12.7935 17.2315 12.8132L17.2589 12.8216V13.117L17.2273 13.0875C17.1794 13.0438 17.1183 13.008 17.0437 12.9798C16.9724 12.952 16.8966 12.9377 16.8201 12.9376C16.7343 12.9376 16.6604 12.9581 16.5986 12.9988C16.5367 13.0382 16.5057 13.0917 16.5057 13.1592C16.5057 13.2492 16.5451 13.3251 16.6238 13.387C16.6801 13.4321 16.7842 13.4876 16.9361 13.5537C17.0894 13.6184 17.2041 13.6866 17.28 13.7584C17.3658 13.84 17.4087 13.9292 17.4087 14.0263ZM6.82406 16.688C6.82406 16.8301 6.76217 16.9538 6.63838 17.0593C6.50617 17.1718 6.3402 17.2281 6.14048 17.2281H5.47167C5.49276 17.2196 5.50894 17.2112 5.5202 17.2028C5.53287 17.1943 5.5448 17.1824 5.55606 17.1669C5.57294 17.143 5.5842 17.1191 5.58982 17.0952C5.59543 17.0712 5.59827 17.0424 5.59827 17.0087V15.7787V15.7491V15.7238C5.59827 15.6887 5.59543 15.6598 5.58982 15.6373C5.58598 15.6143 5.57655 15.5925 5.56238 15.574C5.54974 15.5543 5.53567 15.5395 5.5202 15.5297C5.5022 15.5186 5.4831 15.5094 5.46322 15.5023H6.13627C6.28676 15.5023 6.41125 15.5367 6.50971 15.6056C6.60817 15.6746 6.65739 15.759 6.65739 15.8588C6.65739 15.9657 6.63627 16.0445 6.5941 16.0951C6.57297 16.1204 6.52164 16.1563 6.44006 16.2027L6.41055 16.2196L6.44217 16.2323C6.57157 16.2843 6.66371 16.3384 6.71855 16.3947C6.7889 16.4678 6.82406 16.5656 6.82406 16.688ZM6.36834 15.8989C6.35427 15.8103 6.3156 15.7456 6.25231 15.7048C6.20308 15.6725 6.14118 15.6563 6.06662 15.6563C6.01318 15.6563 5.97101 15.6633 5.94006 15.6774L5.87041 15.7069V16.1943L5.97381 16.1964C6.07087 16.1964 6.15736 16.1767 6.23332 16.1373C6.32613 16.0895 6.37255 16.0234 6.37255 15.939C6.37255 15.9319 6.37115 15.9186 6.36834 15.8989ZM6.52869 16.6985C6.52869 16.586 6.48227 16.4988 6.38943 16.4369C6.30785 16.3821 6.20799 16.3546 6.08985 16.3546C6.0589 16.3546 6.02725 16.3568 5.9949 16.361L5.87252 16.3799V17.0044L5.91473 17.0234C5.98224 17.0544 6.0575 17.0698 6.14048 17.0698C6.2488 17.0698 6.3381 17.041 6.40841 16.9834C6.48859 16.9172 6.52869 16.8223 6.52869 16.6985ZM9.54146 17.2281H8.97181C9.00136 17.2253 9.03301 17.2056 9.06676 17.169C9.07803 17.1564 9.08364 17.1409 9.08364 17.1226C9.08364 17.1057 9.07873 17.0839 9.06887 17.0572L8.87901 16.5825H8.22708L8.06883 17.0129C8.05767 17.0433 8.05196 17.0754 8.05195 17.1078C8.05195 17.1416 8.05971 17.1662 8.07515 17.1817C8.10188 17.207 8.12932 17.2225 8.15746 17.2281H7.65322C7.67211 17.2194 7.69043 17.2096 7.70806 17.1985C7.72353 17.1873 7.73901 17.1747 7.75448 17.1606C7.77696 17.1381 7.79614 17.1125 7.81143 17.0846C7.82129 17.0663 7.83466 17.0368 7.85153 16.996L8.37687 15.6858C8.38248 15.6717 8.38673 15.6598 8.38953 15.65C8.39234 15.6387 8.39374 15.6268 8.39374 15.6141C8.39374 15.6042 8.39164 15.5916 8.38743 15.5761C8.37476 15.5353 8.34522 15.5107 8.2988 15.5023H8.72497L9.29887 16.9179C9.30869 16.9461 9.31995 16.9749 9.33262 17.0044C9.34525 17.0326 9.36213 17.0614 9.38325 17.091C9.40392 17.1185 9.42724 17.1439 9.45287 17.1669C9.47676 17.188 9.50631 17.2084 9.54146 17.2281ZM8.81781 16.3968L8.56041 15.7428L8.2988 16.3968H8.81781ZM12.1591 15.5023C12.1028 15.5248 12.062 15.56 12.0367 15.6078C12.0261 15.6265 12.0176 15.6463 12.0114 15.6668C12.0058 15.6879 12.003 15.7139 12.003 15.7449V15.7829L12.0051 17.3146C11.9643 17.3019 11.9291 17.2879 11.8996 17.2724C11.8701 17.2583 11.837 17.2372 11.8004 17.2091C11.7763 17.1921 11.7537 17.173 11.7329 17.1521C11.7231 17.1423 11.6928 17.105 11.6422 17.0403L10.7181 15.8736L10.7202 16.9517V16.9791C10.7202 17.0129 10.7237 17.0438 10.7308 17.0719C10.7392 17.1001 10.7575 17.1331 10.7856 17.1711C10.7927 17.1796 10.8067 17.1908 10.8278 17.2049C10.8489 17.2175 10.8644 17.2253 10.8742 17.2281H10.37C10.3899 17.2202 10.409 17.2103 10.4269 17.1985C10.4523 17.1817 10.472 17.162 10.486 17.1395C10.5017 17.1151 10.5124 17.0878 10.5177 17.0593C10.5247 17.0284 10.5282 17.0016 10.5282 16.9791V15.7681C10.5282 15.7343 10.5261 15.7041 10.5219 15.6774C10.5191 15.6507 10.5113 15.6275 10.4987 15.6078C10.479 15.5796 10.4607 15.5585 10.4438 15.5445C10.4283 15.529 10.4051 15.5149 10.3742 15.5023H10.7941C10.7969 15.5234 10.7997 15.5367 10.8025 15.5424C10.8109 15.5578 10.8166 15.5677 10.8194 15.5719C10.8292 15.5874 10.8411 15.6049 10.8552 15.6247L11.8068 16.8251V15.7787C11.8068 15.7336 11.804 15.6978 11.7983 15.671C11.7941 15.6443 11.7821 15.6155 11.7624 15.5845C11.7518 15.5669 11.7382 15.5512 11.7224 15.5381C11.7069 15.5255 11.6872 15.5135 11.6633 15.5023H12.1591ZM13.5095 17.2281H12.9884C13.0109 17.2154 13.0285 17.2035 13.0411 17.1922C13.0552 17.181 13.0664 17.1655 13.0749 17.1458C13.0847 17.1261 13.0925 17.1015 13.0981 17.0719C13.1051 17.0424 13.1087 17.0101 13.1087 16.9749V15.7639V15.7364C13.1087 15.6971 13.1066 15.6668 13.1023 15.6457C13.0981 15.6247 13.0876 15.6007 13.0707 15.574C13.0594 15.5557 13.0475 15.5416 13.0348 15.5318C13.0236 15.5219 13.0067 15.5121 12.9842 15.5023H13.5095C13.487 15.5107 13.4687 15.5205 13.4547 15.5318C13.4406 15.5416 13.4273 15.5564 13.4146 15.5761C13.3977 15.6014 13.3871 15.6254 13.3829 15.6478C13.3801 15.6703 13.3787 15.7027 13.3787 15.7449V16.9538C13.3787 16.9988 13.3801 17.0354 13.3829 17.0635C13.3871 17.0903 13.3977 17.1205 13.4146 17.1542C13.4244 17.1711 13.4371 17.1859 13.4526 17.1985C13.4705 17.2103 13.4896 17.2202 13.5095 17.2281ZM14.5454 17.2281H14.4948C14.4765 17.2281 14.4533 17.2288 14.4252 17.2302C14.3563 17.2302 14.2923 17.2281 14.2332 17.2239C14.1741 17.2182 14.1326 17.2091 14.1087 17.1964C14.0735 17.1796 14.0538 17.1697 14.0496 17.1669C14.0229 17.1514 13.9934 17.1212 13.961 17.0762L13.4103 16.3356L13.8618 15.7407C13.8703 15.728 13.8787 15.7104 13.8872 15.6879C13.8956 15.6654 13.8998 15.6443 13.8998 15.6247C13.8998 15.6035 13.8963 15.5867 13.8893 15.574C13.8738 15.5388 13.8457 15.5149 13.8049 15.5023H14.3028L13.6889 16.2808L14.229 16.9918C14.2458 17.0143 14.2627 17.0347 14.2796 17.053C14.3011 17.0725 14.3236 17.0908 14.3471 17.1078C14.3963 17.1444 14.4315 17.169 14.4526 17.1817C14.4737 17.1943 14.5047 17.2098 14.5454 17.2281Z" fill="white"/>
<path d="M10.5088 2.80713L7.19299 6.22818H8.82457L12.1754 2.80713H10.5088ZM10.7018 4.77204L7.38598 8.19309H9.01755L12.3684 4.77204H10.7018ZM11.1228 6.49134L7.80703 9.91239H9.43861L12.7895 6.49134H11.1228Z" fill="#F2A809"/>
</svg>
