<svg width="83" height="15" viewBox="0 0 83 15" fill="none" xmlns="http://www.w3.org/2000/svg">
<path fill-rule="evenodd" clip-rule="evenodd" d="M7.5 0L9.8175 4.69336L15 5.45059L11.25 9.10181L12.135 14.26L7.5 11.8234L2.865 14.26L3.75 9.10181L0 5.45059L5.1825 4.69336L7.5 0Z" fill="#F3AD18"/>
<path fill-rule="evenodd" clip-rule="evenodd" d="M24.5 0L26.8175 4.69336L32 5.45059L28.25 9.10181L29.135 14.26L24.5 11.8234L19.865 14.26L20.75 9.10181L17 5.45059L22.1825 4.69336L24.5 0Z" fill="#F3AD18"/>
<path fill-rule="evenodd" clip-rule="evenodd" d="M41.5 0L43.8175 4.69336L49 5.45059L45.25 9.10181L46.135 14.26L41.5 11.8234L36.865 14.26L37.75 9.10181L34 5.45059L39.1825 4.69336L41.5 0Z" fill="#F3AD18"/>
<path fill-rule="evenodd" clip-rule="evenodd" d="M58.5 0L60.8175 4.69336L66 5.45059L62.25 9.10181L63.135 14.26L58.5 11.8234L53.865 14.26L54.75 9.10181L51 5.45059L56.1825 4.69336L58.5 0Z" fill="#F3AD18"/>
<path d="M75.5 1.12931L77.3692 4.91473C77.442 5.06213 77.5825 5.16433 77.7452 5.1881L81.9255 5.7989L78.9012 8.74357C78.7832 8.85845 78.7294 9.02406 78.7572 9.18636L79.4709 13.346L75.7327 11.3808C75.587 11.3042 75.413 11.3042 75.2673 11.3808L71.5291 13.346L72.2428 9.18636C72.2706 9.02406 72.2168 8.85845 72.0988 8.74357L69.0745 5.7989L73.2548 5.1881C73.4175 5.16433 73.558 5.06213 73.6308 4.91473L75.5 1.12931Z" fill="#F3AD18" stroke="#F3AD18" stroke-linecap="round" stroke-linejoin="round"/>
</svg>
