<svg width="16" height="16" viewBox="0 0 16 16" fill="none" xmlns="http://www.w3.org/2000/svg">
<path d="M8 10C8.53043 10 9.03914 9.78929 9.41421 9.41421C9.78929 9.03914 10 8.53043 10 8C10 7.46957 9.78929 6.96086 9.41421 6.58579C9.03914 6.21071 8.53043 6 8 6C7.46957 6 6.96086 6.21071 6.58579 6.58579C6.21071 6.96086 6 7.46957 6 8C6 8.53043 6.21071 9.03914 6.58579 9.41421C6.96086 9.78929 7.46957 10 8 10V10Z" stroke="#292D32" stroke-miterlimit="10" stroke-linecap="round" stroke-linejoin="round"/>
<path d="M1.33331 8.58679V7.41345C1.33331 6.72012 1.89998 6.14679 2.59998 6.14679C3.80665 6.14679 4.29998 5.29345 3.69331 4.24679C3.34665 3.64679 3.55331 2.86679 4.15998 2.52012L5.31331 1.86012C5.83998 1.54679 6.51998 1.73345 6.83331 2.26012L6.90665 2.38679C7.50665 3.43345 8.49331 3.43345 9.09998 2.38679L9.17331 2.26012C9.48665 1.73345 10.1666 1.54679 10.6933 1.86012L11.8466 2.52012C12.4533 2.86679 12.66 3.64679 12.3133 4.24679C11.7066 5.29345 12.2 6.14679 13.4066 6.14679C14.1 6.14679 14.6733 6.71345 14.6733 7.41345V8.58679C14.6733 9.28012 14.1066 9.85345 13.4066 9.85345C12.2 9.85345 11.7066 10.7068 12.3133 11.7535C12.66 12.3601 12.4533 13.1335 11.8466 13.4801L10.6933 14.1401C10.1666 14.4535 9.48665 14.2668 9.17331 13.7401L9.09998 13.6135C8.49998 12.5668 7.51331 12.5668 6.90665 13.6135L6.83331 13.7401C6.51998 14.2668 5.83998 14.4535 5.31331 14.1401L4.15998 13.4801C3.86938 13.3128 3.65703 13.037 3.56954 12.7133C3.48205 12.3896 3.52657 12.0444 3.69331 11.7535C4.29998 10.7068 3.80665 9.85345 2.59998 9.85345C1.89998 9.85345 1.33331 9.28012 1.33331 8.58679V8.58679Z" stroke="#292D32" stroke-miterlimit="10" stroke-linecap="round" stroke-linejoin="round"/>
</svg>
