<svg width="28" height="30" viewBox="0 0 28 30" fill="none" xmlns="http://www.w3.org/2000/svg">
<path d="M17.0663 29.3304H10.7196C5.67962 29.3304 1.71962 26.1571 0.626283 21.2371L0.0796167 18.7571C-0.293717 17.0504 0.679617 15.2104 2.29295 14.5571L11.533 10.8504C13.0491 10.2504 14.7368 10.2504 16.253 10.8504L25.493 14.5571C27.1196 15.2104 28.093 17.0504 27.7063 18.7571L27.1596 21.2371C26.0663 26.1571 22.1063 29.3304 17.0663 29.3304ZM13.893 12.3971C13.3463 12.3971 12.7996 12.5037 12.2663 12.7037L3.02628 16.4104C2.31962 16.6904 1.85295 17.5837 2.01295 18.3171L2.55962 20.7971C3.45295 24.8237 6.57295 27.3171 10.7063 27.3171H17.053C21.1863 27.3171 24.3063 24.8237 25.1996 20.7971L25.7463 18.3171C25.9063 17.5837 25.4396 16.6904 24.733 16.4104L15.493 12.7037C14.9863 12.5037 14.4396 12.3971 13.893 12.3971Z" fill="#F1592D"/>
<path d="M13.8955 29.333C13.3488 29.333 12.8955 28.8797 12.8955 28.333V12.333C12.8955 11.7863 13.3488 11.333 13.8955 11.333C14.4422 11.333 14.8955 11.7863 14.8955 12.333V28.333C14.8955 28.8797 14.4422 29.333 13.8955 29.333Z" fill="#F1592D"/>
<path d="M23.2318 15.7332C23.1118 15.7332 22.9784 15.7065 22.8584 15.6665L15.5118 12.7198C14.4718 12.3065 13.3251 12.3065 12.2718 12.7198L4.92511 15.6665C4.77249 15.7254 4.60787 15.7464 4.44534 15.7279C4.28281 15.7093 4.12719 15.6516 3.99178 15.5598C3.85553 15.4694 3.74396 15.3465 3.66714 15.2022C3.59031 15.0579 3.55067 14.8967 3.55178 14.7332V9.6665C3.55178 6.9065 5.79178 4.6665 8.55178 4.6665H19.2184C21.9784 4.6665 24.2184 6.9065 24.2184 9.6665V14.7332C24.2184 15.0665 24.0584 15.3732 23.7784 15.5598C23.6184 15.6798 23.4318 15.7332 23.2318 15.7332ZM13.8984 10.3998C14.6984 10.3998 15.4984 10.5465 16.2584 10.8532L22.2318 13.2532V9.6665C22.2318 8.01317 20.8851 6.6665 19.2318 6.6665H8.56511C6.91178 6.6665 5.56511 8.01317 5.56511 9.6665V13.2532L11.5384 10.8532C12.2984 10.5598 13.0984 10.3998 13.8984 10.3998Z" fill="#F1592D"/>
<path d="M17.2292 6.6665H10.5625C10.0158 6.6665 9.5625 6.21317 9.5625 5.6665V2.99984C9.5625 1.71984 10.6158 0.666504 11.8958 0.666504H15.8958C17.1758 0.666504 18.2292 1.71984 18.2292 2.99984V5.6665C18.2292 6.21317 17.7758 6.6665 17.2292 6.6665ZM11.5625 4.6665H16.2292V2.99984C16.2292 2.81317 16.0825 2.6665 15.8958 2.6665H11.8958C11.7092 2.6665 11.5625 2.81317 11.5625 2.99984V4.6665Z" fill="#F1592D"/>
</svg>
