<svg width="20" height="20" viewBox="0 0 20 20" fill="none" xmlns="http://www.w3.org/2000/svg">
<path d="M14.1667 17.7084H5.83342C2.79175 17.7084 1.04175 15.9584 1.04175 12.9167V7.08342C1.04175 4.04175 2.79175 2.29175 5.83342 2.29175H14.1667C17.2084 2.29175 18.9584 4.04175 18.9584 7.08342V12.9167C18.9584 15.9584 17.2084 17.7084 14.1667 17.7084ZM5.83342 3.54175C3.45008 3.54175 2.29175 4.70008 2.29175 7.08342V12.9167C2.29175 15.3001 3.45008 16.4584 5.83342 16.4584H14.1667C16.5501 16.4584 17.7084 15.3001 17.7084 12.9167V7.08342C17.7084 4.70008 16.5501 3.54175 14.1667 3.54175H5.83342Z" fill="#F1592D"/>
<path d="M9.99931 10.7235C9.29931 10.7235 8.59097 10.5068 8.04931 10.0652L5.44097 7.98185C5.31968 7.87653 5.24373 7.72845 5.22896 7.5685C5.21419 7.40854 5.26174 7.24906 5.36169 7.12331C5.46165 6.99757 5.60629 6.91526 5.76545 6.89356C5.92461 6.87186 6.08601 6.91244 6.21597 7.00684L8.82431 9.09018C9.45764 9.59851 10.5326 9.59851 11.166 9.09018L13.7743 7.00684C14.041 6.79018 14.441 6.83184 14.6493 7.10684C14.866 7.37351 14.8243 7.77351 14.5493 7.98185L11.941 10.0652C11.4076 10.5068 10.6993 10.7235 9.99931 10.7235Z" fill="#F1592D"/>
</svg>
