<svg width="21" height="20" viewBox="0 0 21 20" fill="none" xmlns="http://www.w3.org/2000/svg">
<path fill-rule="evenodd" clip-rule="evenodd" d="M0.768311 0.144775H20.56V1.65366H0.768311V0.144775ZM0.768311 3.16254H20.56V4.67143H0.768311V3.16254ZM0.768311 6.17648H20.56V7.6892H0.768311V6.17648ZM0.768311 9.19425H20.56V10.7031H0.768311V9.19425ZM0.768311 12.212H20.56V13.7209H0.768311V12.212ZM0.768311 15.226H20.56V16.7348H0.768311V15.226ZM0.768311 18.2437H20.56V19.7526H0.768311V18.2437Z" fill="#BD3D44"/>
<path fill-rule="evenodd" clip-rule="evenodd" d="M0.768311 1.65356H20.56V3.16245H0.768311V1.65356ZM0.768311 4.67134H20.56V6.17639H0.768311V4.67134ZM0.768311 7.68528H20.56V9.19416H0.768311V7.68528ZM0.768311 10.703H20.56V12.2119H0.768311V10.703ZM0.768311 13.7208H20.56V15.2297H0.768311V13.7208ZM0.768311 16.7348H20.56V18.2436H0.768311V16.7348Z" fill="white"/>
<path fill-rule="evenodd" clip-rule="evenodd" d="M0.768311 0.144775H8.68457V10.7031H0.768311V0.144775Z" fill="#192F5D"/>
<path fill-rule="evenodd" clip-rule="evenodd" d="M1.42749 0.59668L1.50073 1.01411H1.73267L1.54549 1.2707L1.6167 1.69196L1.42749 1.43154L1.24032 1.68813L1.31152 1.2707L1.12231 1.01411H1.35832L1.42749 0.59668ZM2.74788 0.59668L2.81909 1.01411H3.05306L2.86385 1.2707L2.93506 1.69196L2.74788 1.43154L2.55868 1.68813L2.62988 1.2707L2.44271 1.01411H2.67464L2.74788 0.59668ZM4.06624 0.59668L4.13949 1.01411H4.36938L4.18221 1.2707L4.25342 1.69196L4.06421 1.43154L3.87703 1.68813L3.94824 1.2707L3.75903 1.01411H3.993L4.06624 0.59668ZM5.38664 0.59668L5.45784 1.01411H5.69181L5.5026 1.2707L5.57585 1.69196L5.38664 1.43154L5.19743 1.68813L5.27067 1.2707L5.08146 1.01411H5.3134L5.38664 0.59668ZM6.705 0.59668L6.77824 1.01411H7.01017L6.823 1.2707L6.89421 1.69196L6.705 1.43154L6.51782 1.68813L6.58903 1.2707L6.40185 1.01411H6.63379L6.705 0.59668ZM8.02539 0.59668L8.0966 1.01411H8.33057L8.14136 1.2707L8.2146 1.69196L8.02539 1.43154L7.83618 1.68813L7.90942 1.2707L7.72021 1.01411H7.95418L8.02539 0.59668ZM2.0887 1.65366L2.15991 2.0711H2.39388L2.20467 2.32768L2.27384 2.74512L2.09074 2.48853L1.90153 2.74512L1.96867 2.32768L1.78556 2.0711H2.0175L2.0887 1.65366ZM3.40706 1.65366L3.48031 2.0711H3.71224L3.52303 2.32768L3.59627 2.74512L3.40706 2.48853L3.21785 2.74512L3.2911 2.32768L3.10189 2.0711H3.33586L3.40706 1.65366ZM4.72746 1.65366L4.79867 2.0711H5.03263L4.84342 2.32768L4.91463 2.74512L4.72746 2.48853L4.53825 2.74512L4.60946 2.32768L4.42228 2.0711H4.65422L4.72746 1.65366ZM6.04582 1.65366L6.11906 2.0711H6.35099L6.16178 2.32768L6.23503 2.74512L6.04582 2.48853L5.85864 2.74512L5.92985 2.32768L5.74064 2.0711H5.97664L6.04582 1.65366ZM7.36621 1.65366L7.43742 2.0711H7.67139L7.48218 2.32768L7.55339 2.74512L7.36621 2.48853L7.177 2.74512L7.24821 2.32768L7.06103 2.0711H7.29297L7.36621 1.65366ZM1.42749 2.70682L1.50073 3.13191H1.73267L1.54549 3.3885L1.6167 3.80593L1.42749 3.54551L1.24032 3.80593L1.31152 3.38467L1.12231 3.12808H1.35832L1.42749 2.70682ZM2.74788 2.70682L2.81909 3.12808H3.05306L2.86385 3.38467L2.93506 3.8021L2.74788 3.54168L2.55868 3.8021L2.62988 3.38084L2.44271 3.12425H2.67464L2.74788 2.70682ZM4.06624 2.70682L4.13949 3.12808H4.36938L4.18221 3.38467L4.25342 3.8021L4.06421 3.54168L3.87703 3.8021L3.94824 3.38084L3.75903 3.12425H3.993L4.06624 2.70682ZM5.38664 2.70682L5.45784 3.12808H5.69181L5.5026 3.38467L5.57585 3.8021L5.38664 3.54168L5.19743 3.8021L5.27067 3.38084L5.08146 3.12425H5.3134L5.38664 2.70682ZM6.705 2.70682L6.77824 3.12808H7.01017L6.823 3.38467L6.89421 3.8021L6.705 3.54168L6.51782 3.8021L6.58903 3.38084L6.40185 3.12425H6.63379L6.705 2.70682ZM8.02539 2.70682L8.0966 3.12808H8.33057L8.14136 3.38467L8.2146 3.8021L8.02539 3.54168L7.83618 3.8021L7.90942 3.38084L7.72021 3.12425H7.95418L8.02539 2.70682ZM2.0887 3.7638L2.15991 4.18124H2.39388L2.20467 4.43782L2.27588 4.85909L2.0887 4.59867L1.8995 4.85526L1.9707 4.43782L1.78353 4.18124H2.01546L2.0887 3.7638ZM3.40706 3.7638L3.48031 4.18124H3.71224L3.52303 4.43782L3.59627 4.85909L3.40706 4.59867L3.21785 4.85526L3.2911 4.43782L3.10189 4.18124H3.33586L3.40706 3.7638ZM4.72746 3.7638L4.79867 4.18124H5.03263L4.84342 4.43782L4.91463 4.85909L4.72746 4.59867L4.53825 4.85526L4.60946 4.43782L4.42228 4.18124H4.65422L4.72746 3.7638ZM6.04582 3.7638L6.11906 4.18124H6.35099L6.16382 4.43782L6.23503 4.85909L6.04582 4.59867L5.85864 4.85526L5.92985 4.43782L5.74064 4.18124H5.97664L6.04582 3.7638ZM7.36621 3.7638L7.43742 4.18124H7.67139L7.48218 4.43782L7.55339 4.85909L7.36621 4.59867L7.177 4.85526L7.24821 4.43782L7.06103 4.18124H7.29297L7.36621 3.7638ZM1.42749 4.82079L1.50073 5.23822H1.73267L1.54549 5.49481L1.6167 5.91607L1.42749 5.65565L1.24032 5.91224L1.31152 5.49481L1.12231 5.23822H1.35832L1.42749 4.82079ZM2.74788 4.82079L2.81909 5.23822H3.05306L2.86385 5.49481L2.93506 5.91224L2.74788 5.65565L2.55868 5.91224L2.62988 5.49481L2.44271 5.23822H2.67464L2.74788 4.82079ZM4.06624 4.82079L4.13949 5.23822H4.36938L4.18221 5.49481L4.25342 5.91607L4.06421 5.65565L3.87703 5.91224L3.94824 5.49481L3.75903 5.23822H3.993L4.06624 4.82079ZM5.38664 4.82079L5.45784 5.23822H5.69181L5.5026 5.49481L5.57585 5.91607L5.38664 5.65565L5.19743 5.91224L5.27067 5.49481L5.08146 5.23822H5.3134L5.38664 4.82079ZM6.705 4.82079L6.77824 5.23822H7.01017L6.823 5.49481L6.89421 5.91607L6.705 5.65565L6.51782 5.91224L6.58903 5.49481L6.40185 5.23822H6.63379L6.705 4.82079ZM8.02539 4.82079L8.0966 5.23822H8.33057L8.14136 5.49481L8.2146 5.91607L8.02539 5.65565L7.83618 5.91224L7.90942 5.49481L7.72021 5.23822H7.95418L8.02539 4.82079ZM2.0887 5.87777L2.15991 6.29521H2.39388L2.20467 6.55179L2.27588 6.96923L2.0887 6.70881L1.8995 6.96923L1.9707 6.54796L1.78353 6.29138H2.01546L2.0887 5.87777ZM3.40706 5.87777L3.48031 6.29521H3.71224L3.52303 6.55179L3.59627 6.96923L3.40706 6.70881L3.21785 6.96923L3.2911 6.54796L3.10189 6.29138H3.33586L3.40706 5.87777ZM4.72746 5.87777L4.79867 6.29521H5.03263L4.84342 6.55179L4.91463 6.96923L4.72746 6.70881L4.53825 6.96923L4.60946 6.54796L4.42228 6.29138H4.65422L4.72746 5.87777ZM6.04582 5.87777L6.11906 6.29521H6.35099L6.16382 6.55179L6.23503 6.96923L6.04582 6.70881L5.85864 6.96923L5.92985 6.54796L5.74064 6.29138H5.97664L6.04582 5.87777ZM7.36621 5.87777L7.43742 6.29521H7.67139L7.48218 6.55179L7.55339 6.96923L7.36621 6.70881L7.177 6.96923L7.24821 6.54796L7.06103 6.29138H7.29297L7.36621 5.87777ZM1.42749 6.93093L1.50073 7.35219H1.73267L1.54549 7.60878L1.6167 8.02238L1.42749 7.76579L1.24032 8.02238L1.31152 7.60495L1.12231 7.34836H1.35832L1.42749 6.93093ZM2.74788 6.93093L2.81909 7.35219H3.05306L2.86385 7.60878L2.93709 8.02238L2.74788 7.76579L2.55868 8.02238L2.63192 7.60495L2.44271 7.34836H2.67464L2.74788 6.93093ZM4.06624 6.93093L4.13949 7.35219H4.36938L4.18221 7.60878L4.25342 8.02238L4.06421 7.76579L3.87703 8.02238L3.94824 7.60495L3.75903 7.34836H3.993L4.06624 6.93093ZM5.38664 6.93093L5.45784 7.35219H5.69181L5.5026 7.60878L5.57585 8.02238L5.38664 7.76579L5.19743 8.02238L5.27067 7.60495L5.08146 7.34836H5.3134L5.38664 6.93093ZM6.705 6.93093L6.77824 7.35219H7.01017L6.823 7.60878L6.89421 8.02238L6.705 7.76579L6.51782 8.02238L6.58903 7.60495L6.40185 7.34836H6.63379L6.705 6.93093ZM8.02539 6.93093L8.0966 7.35219H8.33057L8.14136 7.60878L8.2146 8.02238L8.02539 7.76579L7.83618 8.02238L7.90942 7.60495L7.72021 7.34836H7.95418L8.02539 6.93093ZM2.0887 7.98791L2.15991 8.40535H2.39388L2.20467 8.66193L2.27588 9.08319L2.0887 8.82278L1.8995 9.07937L1.9707 8.66193L1.78353 8.40535H2.01546L2.0887 7.98791ZM3.40706 7.98791L3.48031 8.40535H3.71224L3.52303 8.66193L3.59627 9.08319L3.40706 8.82278L3.21785 9.07937L3.2911 8.66193L3.10189 8.40535H3.33586L3.40706 7.98791ZM4.72746 7.98791L4.79867 8.40535H5.03263L4.84342 8.66193L4.91463 9.08319L4.72746 8.82278L4.53825 9.07937L4.60946 8.66193L4.42228 8.40535H4.65422L4.72746 7.98791ZM6.04582 7.98791L6.11906 8.40535H6.35099L6.16382 8.66193L6.23503 9.08319L6.04582 8.82278L5.85864 9.07937L5.92985 8.66193L5.74064 8.40535H5.97664L6.04582 7.98791ZM7.36621 7.98791L7.43742 8.40535H7.67139L7.48218 8.66193L7.55339 9.08319L7.36621 8.82278L7.177 9.07937L7.24821 8.66193L7.06103 8.40535H7.29297L7.36621 7.98791ZM1.42749 9.0449L1.50073 9.46233H1.73267L1.54549 9.71892L1.6167 10.1363L1.42749 9.87976L1.24032 10.1363L1.31152 9.71509L1.12231 9.4585H1.35832L1.42749 9.0449ZM2.74788 9.0449L2.81909 9.46233H3.05306L2.86385 9.71892L2.93709 10.1363L2.74788 9.87976L2.55868 10.1363L2.63192 9.71509L2.44271 9.4585H2.67464L2.74788 9.0449ZM4.06624 9.0449L4.13949 9.46233H4.36938L4.18628 9.71892L4.25749 10.1363L4.06828 9.87976L3.8811 10.1363L3.95231 9.71509L3.7631 9.4585H3.99707L4.06624 9.0449ZM5.38664 9.0449L5.45784 9.46233H5.69181L5.5026 9.71892L5.57585 10.1363L5.38664 9.87976L5.19743 10.1363L5.27067 9.71509L5.08146 9.4585H5.3134L5.38664 9.0449ZM6.705 9.0449L6.77824 9.46233H7.01017L6.823 9.71892L6.89421 10.1363L6.705 9.87976L6.51782 10.1363L6.58903 9.71509L6.40185 9.4585H6.63379L6.705 9.0449ZM8.02539 9.0449L8.0966 9.46233H8.33057L8.14136 9.71892L8.2146 10.1363L8.02539 9.87976L7.83618 10.1363L7.90942 9.71509L7.72021 9.4585H7.95418L8.02539 9.0449Z" fill="white"/>
</svg>
