<svg width="29" height="29" viewBox="0 0 29 29" fill="none" xmlns="http://www.w3.org/2000/svg">
<path d="M15.6667 18H1C0.453333 18 0 17.5467 0 17V6.33333C0 2.84 2.84 0 6.33333 0H18.3333C18.88 0 19.3333 0.453333 19.3333 1V14.3333C19.3333 16.36 17.6933 18 15.6667 18ZM2 16H15.6667C16.5867 16 17.3333 15.2533 17.3333 14.3333V2H6.33333C3.94667 2 2 3.94667 2 6.33333V16Z" fill="#F1592D"/>
<path d="M23.6667 26H22.3333C21.7867 26 21.3333 25.5467 21.3333 25C21.3333 24.558 21.1577 24.1341 20.8452 23.8215C20.5326 23.5089 20.1087 23.3333 19.6667 23.3333C19.2246 23.3333 18.8007 23.5089 18.4882 23.8215C18.1756 24.1341 18 24.558 18 25C18 25.5467 17.5467 26 17 26H11.6667C11.12 26 10.6667 25.5467 10.6667 25C10.6667 24.558 10.4911 24.1341 10.1785 23.8215C9.86595 23.5089 9.44203 23.3333 9 23.3333C8.55797 23.3333 8.13405 23.5089 7.82149 23.8215C7.50893 24.1341 7.33333 24.558 7.33333 25C7.33333 25.5467 6.88 26 6.33333 26H5C2.24 26 0 23.76 0 21V17C0 16.4533 0.453333 16 1 16H15.6667C16.5867 16 17.3333 15.2533 17.3333 14.3333V5C17.3333 4.45333 17.7867 4 18.3333 4H20.7867C22.1067 4 23.32 4.70667 23.9733 5.85333L26.2533 9.84C26.4267 10.1467 26.4267 10.5333 26.2533 10.84C26.08 11.1467 25.7467 11.3333 25.3867 11.3333H23.6667C23.48 11.3333 23.3333 11.48 23.3333 11.6667V15.6667C23.3333 15.8533 23.48 16 23.6667 16H27.6667C28.2133 16 28.6667 16.4533 28.6667 17V21C28.6667 23.76 26.4267 26 23.6667 26ZM23.2 24H23.6667C25.32 24 26.6667 22.6533 26.6667 21V18H23.6667C22.3867 18 21.3333 16.9467 21.3333 15.6667V11.6667C21.3333 10.3867 22.3733 9.33333 23.6667 9.33333L22.24 6.84C21.9467 6.32 21.3867 6 20.7867 6H19.3333V14.3333C19.3333 16.36 17.6933 18 15.6667 18H2V21C2 22.6533 3.34667 24 5 24H5.46667C5.90667 22.4667 7.32 21.3333 9 21.3333C10.68 21.3333 12.0933 22.4667 12.5333 24H16.1467C16.5867 22.4667 18 21.3333 19.68 21.3333C21.36 21.3333 22.76 22.4667 23.2 24Z" fill="#F1592D"/>
<path d="M8.99967 28.6668C6.97301 28.6668 5.33301 27.0268 5.33301 25.0002C5.33301 22.9735 6.97301 21.3335 8.99967 21.3335C11.0263 21.3335 12.6663 22.9735 12.6663 25.0002C12.6663 27.0268 11.0263 28.6668 8.99967 28.6668ZM8.99967 23.3335C8.55765 23.3335 8.13372 23.5091 7.82116 23.8217C7.5086 24.1342 7.33301 24.5581 7.33301 25.0002C7.33301 25.4422 7.5086 25.8661 7.82116 26.1787C8.13372 26.4912 8.55765 26.6668 8.99967 26.6668C9.4417 26.6668 9.86562 26.4912 10.1782 26.1787C10.4907 25.8661 10.6663 25.4422 10.6663 25.0002C10.6663 24.5581 10.4907 24.1342 10.1782 23.8217C9.86562 23.5091 9.4417 23.3335 8.99967 23.3335Z" fill="#F1592D"/>
<path d="M19.6667 28.6668C17.64 28.6668 16 27.0268 16 25.0002C16 22.9735 17.64 21.3335 19.6667 21.3335C21.6933 21.3335 23.3333 22.9735 23.3333 25.0002C23.3333 27.0268 21.6933 28.6668 19.6667 28.6668ZM19.6667 23.3335C19.2246 23.3335 18.8007 23.5091 18.4882 23.8217C18.1756 24.1342 18 24.5581 18 25.0002C18 25.4422 18.1756 25.8661 18.4882 26.1787C18.8007 26.4912 19.2246 26.6668 19.6667 26.6668C20.1087 26.6668 20.5326 26.4912 20.8452 26.1787C21.1577 25.8661 21.3333 25.4422 21.3333 25.0002C21.3333 24.5581 21.1577 24.1342 20.8452 23.8217C20.5326 23.5091 20.1087 23.3335 19.6667 23.3335Z" fill="#F1592D"/>
<path d="M27.6663 18.0002H23.6663C22.3863 18.0002 21.333 16.9468 21.333 15.6668V11.6668C21.333 10.3868 22.3863 9.3335 23.6663 9.3335H25.3863C25.7463 9.3335 26.0797 9.52016 26.253 9.84016L28.533 13.8402C28.613 13.9868 28.6663 14.1602 28.6663 14.3335V17.0002C28.6663 17.5468 28.213 18.0002 27.6663 18.0002ZM23.6663 11.3335C23.4797 11.3335 23.333 11.4802 23.333 11.6668V15.6668C23.333 15.8535 23.4797 16.0002 23.6663 16.0002H26.6663V14.6002L24.7997 11.3335H23.6663Z" fill="#F1592D"/>
</svg>
